<svg height="700pt" preserveAspectRatio="xMidYMid meet" viewBox="0 0 700 700" width="700pt" xmlns="http://www.w3.org/2000/svg"><path d="m3403 6766c-200-65-287-285-188-475 21-41 92-108 135-128l39-18 1-173c0-129-3-174-12-177-7-2-44-6-83-9-84-7-151-15-185-22-14-3-36-8-50-10s-56-12-95-21c-38-9-71-16-72-16-1 1-52-16-114-36l-111-38-29 61c-16 34-53 115-82 181-77 175-57 162-167 114-52-22-96-42-98-44s37-95 91-215c11-25 33-74 49-109 16-36 27-70 24-76-2-7-31-26-65-43-33-18-77-43-97-57s-43-25-50-25-28 21-46 48c-18 26-46 65-63 88-16 22-38 51-47 65-69 96-101 134-111 134-15 0-166-107-167-118 0-8 39-63 188-265l64-86-49-44c-167-151-303-302-396-438l-49-72-106 61c-59 33-126 72-150 87l-43 27-3 74c-11 279-339 414-545 223-167-155-128-428 76-530 51-26 69-29 148-29 90 0 144 17 195 60 13 11 39-1 165-74l151-86-48-105c-62-138-120-318-155-475l-27-127-47 6c-25 3-75 8-110 11-35 4-75 8-89 10-14 3-62 8-107 11-82 6-83 6-84-17 0-13-3-44-6-69s-6-63-7-85l-1-40 123-11c68-7 152-15 185-19 34-4 73-9 87-10 14-2 27-3 30-4 10-2 5-261-5-262-5 0-19-2-30-4-11-1-54-5-95-9s-82-9-90-11c-13-4-156-16-198-18-14 0-13-30 5-170l6-48 73 5c41 3 84 8 96 10 13 3 51 8 86 11 34 3 88 8 120 11l59 6 13-64c43-212 103-400 176-554 19-39 34-75 34-80 0-10-17-21-84-59-23-13-80-46-128-73-48-28-90-47-93-41-4 5-30 22-58 37-45 23-64 27-142 27-80 0-97-3-148-29-163-83-229-284-145-441 104-196 364-238 518-84 63 63 90 124 98 222l7 79 55 30c30 16 65 36 77 44s44 26 70 40c26 15 56 33 66 40 17 11 28 0 110-109 83-111 292-334 375-400l33-27-22-32c-12-18-69-97-126-174-57-78-103-146-103-150 1-5 30-29 66-54s72-51 80-58c8-8 18-12 24-10 5 2 65 80 134 175l126 171 82-49c46-27 95-55 111-62 15-6 27-17 27-24 0-6-23-62-51-125-28-62-60-133-71-158s-26-60-35-78c-8-19-13-35-11-36 1-2 45-22 97-45 108-47 96-52 142 54 14 33 38 87 53 120s39 87 54 121l27 61 70-24c64-23 143-45 204-59 12-2 51-11 85-19 81-19 110-24 181-31 33-4 67-8 75-10 8-1 36-3 63-3l47-1v-177l-1-178-40-19c-56-26-118-91-148-156-37-81-36-192 4-273 33-67 97-130 163-160 37-17 67-21 137-22 81 0 95 3 140 29 28 16 67 45 88 65 93 88 120 242 64 364-28 63-104 141-153 159l-34 12v176c0 134 3 177 13 177 39 2 184 15 197 18 8 2 33 7 55 10 92 13 277 59 376 95l80 28 18-36c10-21 49-107 86-192s71-158 75-163c6-7 43 7 160 61 19 8 36 17 38 18 3 2-138 329-159 366-16 30-10 45 22 58 17 8 67 35 110 61l79 48 24-32c13-18 69-95 126-172 56-77 105-141 110-143 4-2 39 20 76 49 38 28 75 53 82 56 6 3 12 10 12 15s-56 87-125 181l-125 171 120 114c132 125 237 245 320 364 50 73 55 77 74 65 12-8 78-47 147-87l126-72 6-77c6-94 32-154 97-220 97-99 276-123 389-53 200 123 221 400 40 544-101 81-284 89-378 16-13-10-30-18-37-18s-68 32-136 71c-175 101-171 99-160 112 17 20 91 194 122 286 37 109 90 314 90 349 0 46 12 55 66 48 27-4 74-9 104-11l90-9c19-3 62-8 94-11 33-3 62-8 66-10 22-14 43 70 45 184 0 37 2 36-95 45-30 3-98 10-150 16s-113 12-135 15c-22 2-42 4-45 4-7 1-7 261 0 262 3 0 13 2 22 4s54 6 100 10 90 9 99 10c9 2 52 6 95 10s86 9 94 10c17 2 18 37 6 145-7 58-20 85-36 75-3-1-34-6-70-9-36-4-81-9-100-11-19-3-60-7-90-10s-76-8-102-11c-27-3-48-2-49 3 0 4-2 15-4 23-1 8-8 42-14 75s-18 85-27 115c-8 30-17 64-19 75-13 60-97 275-141 363l-22 44 41 24c245 145 261 153 277 140 49-44 105-61 195-61 101 0 149 17 223 80 36 32 92 124 99 165 9 49 9 108 1 144-53 250-366 345-547 166-71-70-98-137-100-245l-1-51-150-86c-147-86-150-87-162-65-21 39-154 210-219 282-63 68-115 119-213 208l-49 44 45 59c88 115 208 283 208 291s-139 109-163 119c-9 3-43-36-102-118-49-68-106-147-127-175l-38-53-53 34c-28 18-79 48-113 66l-61 32 89 200c49 110 88 202 86 203-2 2-46 22-98 44-88 39-96 40-107 24-7-9-13-21-13-25 0-5-16-43-35-84s-35-76-35-79c0-2-20-46-44-98l-44-95-97 34c-53 19-106 36-118 38s-40 9-62 14c-101 27-298 58-407 64l-38 2v176l1 175 37 17c56 26 116 88 148 154 25 51 29 70 28 139 0 67-5 90-28 137-33 67-99 131-164 161-59 25-171 32-229 13z" transform="matrix(.1 0 0 -.1 0 700)"/></svg>