<?xml version="1.0" encoding="UTF-8"?>
<svg width="101px" height="101px" viewBox="0 0 101 101" version="1.1" xmlns="http://www.w3.org/2000/svg" xmlns:xlink="http://www.w3.org/1999/xlink">
    <!-- Generator: Sketch 64 (93537) - https://sketch.com -->
    <title>Logo</title>
    <g id="Logo" stroke="none" stroke-width="1" fill="none" fill-rule="evenodd">
        <g id="Logo" transform="translate(-2.000000, 1.000000)" fill="#4517A6" fill-rule="nonzero">
            <path d="M56.3201955,1.21668678 C60.0671078,3.55801741 61.2065568,8.49351342 58.8652262,12.2404257 C58.1242549,13.4262276 57.1234623,14.3508762 55.9827494,14.9866903 C55.7348624,15.1248583 55.4221476,15.2612377 55.0446048,15.3958286 C53.9389127,15.7899826 53.2067152,16.844173 53.2234067,18.0178995 C53.2402376,19.2014283 54.0053057,20.2442451 55.1292027,20.6155659 C55.7938597,20.8351624 56.3269312,21.0703988 56.728417,21.321275 C60.5924202,23.7357722 61.7736129,28.815683 59.3666846,32.6675734 C56.9597564,36.5194638 51.876162,37.6847012 48.0121587,35.270204 C44.1481555,32.8557068 42.9669628,27.7757959 45.3738911,23.9239056 C46.1242936,22.7230104 47.1348658,21.7832555 48.2875372,21.1317046 C48.5733936,20.9701234 48.9412862,20.8117083 49.391215,20.6564594 C50.5020126,20.2731986 51.2412623,19.2201477 51.2243514,18.045212 C51.2073685,16.8652675 50.4477576,15.8244389 49.3291986,15.4484294 C48.713504,15.2414688 48.2176003,15.0204778 47.8414873,14.7854563 C44.094575,12.4441257 42.955126,7.50862968 45.2964566,3.76171744 C47.6377873,0.014805192 52.5732833,-1.12464384 56.3201955,1.21668678 Z" id="original_Path-Copy_97198032-Copy-2"></path>
            <path d="M82.0461735,13.6056648 C85.7930858,15.9469955 86.9325348,20.8824915 84.5912042,24.6294037 C83.8502329,25.8152056 82.8494403,26.7398543 81.7087274,27.3756683 C81.4608404,27.5138363 81.1481256,27.6502157 80.7705828,27.7848066 C79.6648907,28.1789606 78.9326932,29.2331511 78.9493847,30.4068776 C78.9662156,31.5904063 79.7312837,32.6332231 80.8551807,33.0045439 C81.5198377,33.2241405 82.0529092,33.4593768 82.454395,33.710253 C86.3183982,36.1247502 87.4995909,41.2046611 85.0926626,45.0565515 C82.6857344,48.9084419 77.60214,50.0736793 73.7381367,47.6591821 C69.8741335,45.2446848 68.6929408,40.164774 71.0998691,36.3128836 C71.8502716,35.1119884 72.8608438,34.1722336 74.0135152,33.5206826 C74.2993716,33.3591014 74.6672642,33.2006864 75.117193,33.0454375 C76.2279906,32.6621766 76.9672403,31.6091258 76.9503295,30.43419 C76.9333465,29.2542455 76.1737356,28.213417 75.0551766,27.8374074 C74.439482,27.6304468 73.9435783,27.4094558 73.5674653,27.1744344 C69.8205531,24.8331037 68.681104,19.8976077 71.0224346,16.1506955 C73.3637653,12.4037832 78.2992613,11.2643342 82.0461735,13.6056648 Z" id="original_Path-Copy_97198032-Copy-2" transform="translate(78.072937, 30.653098) rotate(51.000000) translate(-78.072937, -30.653098) "></path>
            <path d="M88.3999654,41.4434458 C92.1468776,43.7847764 93.2863267,48.7202725 90.944996,52.4671847 C90.2040248,53.6529866 89.2032321,54.5776353 88.0625192,55.2134493 C87.8146323,55.3516173 87.5019174,55.4879967 87.1243747,55.6225876 C86.0186825,56.0167416 85.286485,57.070932 85.3031765,58.2446586 C85.3200075,59.4281873 86.0850755,60.4710041 87.2089725,60.8423249 C87.8736296,61.0619215 88.406701,61.2971578 88.8081868,61.548034 C92.6721901,63.9625312 93.8533827,69.0424421 91.4464545,72.8943325 C89.0395262,76.7462229 83.9559318,77.9114603 80.0919286,75.496963 C76.2279253,73.0824658 75.0467327,68.002555 77.4536609,64.1506646 C78.2040635,62.9497694 79.2146357,62.0100146 80.367307,61.3584636 C80.6531634,61.1968824 81.021056,61.0384674 81.4709849,60.8832185 C82.5817824,60.4999576 83.3210321,59.4469068 83.3041213,58.271971 C83.2871384,57.0920265 82.5275274,56.051198 81.4089685,55.6751884 C80.7932739,55.4682278 80.2973701,55.2472368 79.9212572,55.0122154 C76.1743449,52.6708847 75.0348959,47.7353887 77.3762265,43.9884765 C79.7175571,40.2415642 84.6530531,39.1021152 88.3999654,41.4434458 Z" id="original_Path-Copy_97198032-Copy-2" transform="translate(84.426729, 58.490879) rotate(103.000000) translate(-84.426729, -58.490879) "></path>
            <path d="M70.5970362,63.7676129 C74.3439485,66.1089435 75.4833975,71.0444395 73.1420669,74.7913518 C72.4010956,75.9771537 71.400303,76.9018023 70.2595901,77.5376164 C70.0117031,77.6757844 69.6989883,77.8121638 69.3214455,77.9467547 C68.2157534,78.3409087 67.4835559,79.3950991 67.5002474,80.5688256 C67.5170783,81.7523544 68.2821464,82.7951712 69.4060434,83.166492 C70.0707004,83.3860885 70.6037718,83.6213249 71.0052577,83.8722011 C74.8692609,86.2866983 76.0504536,91.3666091 73.6435253,95.2184995 C71.2365971,99.0703899 66.1530027,100.235627 62.2889994,97.8211301 C58.4249962,95.4066329 57.2438035,90.326722 59.6507317,86.4748317 C60.4011343,85.2739365 61.4117065,84.3341816 62.5643779,83.6826307 C62.8502343,83.5210495 63.2181269,83.3626344 63.6680557,83.2073855 C64.7788533,82.8241247 65.518103,81.7710738 65.5011921,80.5961381 C65.4842092,79.4161936 64.7245983,78.375365 63.6060393,77.9993555 C62.9903447,77.7923949 62.494441,77.5714039 62.118328,77.3363824 C58.3714157,74.9950518 57.2319667,70.0595558 59.5732973,66.3126435 C61.914628,62.5657313 66.850124,61.4262823 70.5970362,63.7676129 Z" id="original_Path-Copy_97198032-Copy-2" transform="translate(66.623800, 80.815046) rotate(154.000000) translate(-66.623800, -80.815046) "></path>
            <path d="M42.0433548,63.7676129 C45.7902671,66.1089435 46.9297161,71.0444395 44.5883855,74.7913518 C43.8474142,75.9771537 42.8466216,76.9018023 41.7059087,77.5376164 C41.4580217,77.6757844 41.1453069,77.8121638 40.7677641,77.9467547 C39.662072,78.3409087 38.9298745,79.3950991 38.946566,80.5688256 C38.9633969,81.7523544 39.728465,82.7951712 40.852362,83.166492 C41.517019,83.3860885 42.0500905,83.6213249 42.4515763,83.8722011 C46.3155795,86.2866983 47.4967722,91.3666091 45.0898439,95.2184995 C42.6829157,99.0703899 37.5993213,100.235627 33.735318,97.8211301 C29.8713148,95.4066329 28.6901221,90.326722 31.0970504,86.4748317 C31.8474529,85.2739365 32.8580251,84.3341816 34.0106965,83.6826307 C34.2965529,83.5210495 34.6644455,83.3626344 35.1143743,83.2073855 C36.2251719,82.8241247 36.9644216,81.7710738 36.9475107,80.5961381 C36.9305278,79.4161936 36.1709169,78.375365 35.0523579,77.9993555 C34.4366633,77.7923949 33.9407596,77.5714039 33.5646466,77.3363824 C29.8177343,74.9950518 28.6782853,70.0595558 31.0196159,66.3126435 C33.3609466,62.5657313 38.2964426,61.4262823 42.0433548,63.7676129 Z" id="original_Path-Copy_97198032-Copy-2" transform="translate(38.070119, 80.815046) rotate(206.000000) translate(-38.070119, -80.815046) "></path>
            <path d="M24.2404257,41.4434458 C27.9873379,43.7847764 29.1267869,48.7202725 26.7854563,52.4671847 C26.0444851,53.6529866 25.0436924,54.5776353 23.9029795,55.2134493 C23.6550926,55.3516173 23.3423777,55.4879967 22.964835,55.6225876 C21.8591428,56.0167416 21.1269453,57.070932 21.1436368,58.2446586 C21.1604677,59.4281873 21.9255358,60.4710041 23.0494328,60.8423249 C23.7140899,61.0619215 24.2471613,61.2971578 24.6486471,61.548034 C28.5126504,63.9625312 29.693843,69.0424421 27.2869148,72.8943325 C24.8799865,76.7462229 19.7963921,77.9114603 15.9323889,75.496963 C12.0683856,73.0824658 10.8871929,68.002555 13.2941212,64.1506646 C14.0445238,62.9497694 15.055096,62.0100146 16.2077673,61.3584636 C16.4936237,61.1968824 16.8615163,61.0384674 17.3114451,60.8832185 C18.4222427,60.4999576 19.1614924,59.4469068 19.1445816,58.271971 C19.1275987,57.0920265 18.3679877,56.051198 17.2494287,55.6751884 C16.6337342,55.4682278 16.1378304,55.2472368 15.7617174,55.0122154 C12.0148052,52.6708847 10.8753562,47.7353887 13.2166868,43.9884765 C15.5580174,40.2415642 20.4935134,39.1021152 24.2404257,41.4434458 Z" id="original_Path-Copy_97198032-Copy-2" transform="translate(20.267189, 58.490879) rotate(257.000000) translate(-20.267189, -58.490879) "></path>
            <path d="M30.5942175,13.6056648 C34.3411298,15.9469955 35.4805788,20.8824915 33.1392482,24.6294037 C32.3982769,25.8152056 31.3974843,26.7398543 30.2567714,27.3756683 C30.0088844,27.5138363 29.6961696,27.6502157 29.3186268,27.7848066 C28.2129346,28.1789606 27.4807372,29.2331511 27.4974287,30.4068776 C27.5142596,31.5904063 28.2793277,32.6332231 29.4032247,33.0045439 C30.0678817,33.2241405 30.6009531,33.4593768 31.002439,33.710253 C34.8664422,36.1247502 36.0476349,41.2046611 33.6407066,45.0565515 C31.2337784,48.9084419 26.150184,50.0736793 22.2861807,47.6591821 C18.4221775,45.2446848 17.2409848,40.164774 19.647913,36.3128836 C20.3983156,35.1119884 21.4088878,34.1722336 22.5615592,33.5206826 C22.8474156,33.3591014 23.2153082,33.2006864 23.665237,33.0454375 C24.7760345,32.6621766 25.5152843,31.6091258 25.4983734,30.43419 C25.4813905,29.2542455 24.7217796,28.213417 23.6032206,27.8374074 C22.987526,27.6304468 22.4916223,27.4094558 22.1155093,27.1744344 C18.368597,24.8331037 17.229148,19.8976077 19.5704786,16.1506955 C21.9118093,12.4037832 26.8473053,11.2643342 30.5942175,13.6056648 Z" id="original_Path-Copy_97198032-Copy-2" transform="translate(26.620981, 30.653098) rotate(309.000000) translate(-26.620981, -30.653098) "></path>
        </g>
    </g>
</svg>