<?xml version="1.0" ?><svg id="_x31_-outline-expand" style="enable-background:new 0 0 64 64;" version="1.1" viewBox="0 0 64 64" xml:space="preserve" xmlns="http://www.w3.org/2000/svg" xmlns:xlink="http://www.w3.org/1999/xlink"><path d="M17,29h2v-8h-2c-2.209,0-4,1.791-4,4C13,27.209,14.791,29,17,29L17,29z" style="fill:#E0C494;"/><path d="M57,21h-2v8h2c2.209,0,4-1.791,4-4C61,22.791,59.209,21,57,21L57,21z" style="fill:#E0C494;"/><path d="M62,54.574c-1.238-0.896-2.654-1.553-4.19-1.874l-9.63-2.03c-0.26-0.05-0.5-0.13-0.74-0.23h-0.01  H26.57c-0.24,0.1-0.49,0.18-0.75,0.23l-9.63,2.03C12.36,53.5,9.24,56.28,8,60v2h54V54.574z" style="fill:#62C4C3;"/><path d="M47.43,50.44L36.999,56L26.57,50.44c1.449-0.631,2.429-2.061,2.429-3.69v-2.63h16v2.63  C44.999,48.379,45.98,49.809,47.43,50.44L47.43,50.44z" style="fill:#F2DAAE;"/><path d="M29,46.324C31.451,47.396,34.153,48,37,48s5.549-0.604,8-1.676V44.12H29V46.324z" style="fill:#E0C494;"/><rect height="4" style="fill:#42A5B2;" width="13" x="43" y="56"/><path d="M45,44.12c-2.41,1.2-5.12,1.88-8,1.88c-2.88,0-5.59-0.68-8-1.88c-5.36-2.66-9.2-7.91-9.89-14.12  h35.78C54.2,36.21,50.36,41.46,45,44.12L45,44.12z" style="fill:#62C4C3;"/><path d="M55,20v1c-3.31,0-6-2.69-6-6v-1H21.21c-0.33,0-0.67-0.03-0.99-0.08c-0.05-0.01-0.1-0.01-0.14-0.02  c-2.54-0.46-4.65-2.42-5.02-5.03c-0.48-3.42,1.93-6.38,5.14-6.81C20.63,3.19,21.72,4,23,4h16C47.84,4,55,11.16,55,20L55,20z" style="fill:#EFBC2E;"/><path d="M55,21v7c0,0.68-0.04,1.34-0.11,2H19.11C19.04,29.34,19,28.68,19,28v-8c0-2.15,0.39-4.19,1.08-6.1  c0.04,0.01,0.09,0.01,0.14,0.02c0.32,0.05,0.65,0.08,0.99,0.08H49v1C49,18.31,51.69,21,55,21L55,21z" style="fill:#F2DAAE;"/><path d="M32,25c0,1.104-0.896,2-2,2c-1.104,0-2-0.896-2-2c0-1.104,0.896-2,2-2C31.104,23,32,23.896,32,25  L32,25z" style="fill:#3A4249;"/><path d="M46,25c0,1.104-0.896,2-2,2c-1.104,0-2-0.896-2-2c0-1.104,0.896-2,2-2C45.104,23,46,23.896,46,25  L46,25z" style="fill:#3A4249;"/><polygon points="37,56 36,55.467 36,62 38,62 38,55.467 " style="fill:#42A5B2;"/><path d="M3,37v25h16v-9l4-7v-3c0-1.104-0.896-2-2-2h-2V27c0-1.104-0.896-2-2-2c-1.104,0-2,0.896-2,2v10  c0-1.104-0.896-2-2-2c-1.104,0-2,0.896-2,2c0-1.104-0.896-2-2-2c-1.104,0-2,0.896-2,2c0-1.104-0.896-2-2-2C3.896,35,3,35.896,3,37  L3,37z" style="fill:#F2DAAE;"/><path d="M13,49L13,49c0-2.209,1.791-4,4-4h3h-1c-2.209,0-4-1.791-4-4h6c1.104,0,2,0.896,2,2v3l-4,7h-2  C14.791,53,13,51.209,13,49L13,49z" style="fill:#E0C494;"/><path d="M13,43L13,43c1.104,0,2-0.896,2-2v-4c0-1.104-0.896-2-2-2c-1.104,0-2,0.896-2,2v4  C11,42.104,11.896,43,13,43L13,43z" style="fill:#E0C494;"/><path d="M9,43L9,43c1.104,0,2-0.896,2-2v-4c0-1.104-0.896-2-2-2c-1.104,0-2,0.896-2,2v4  C7,42.104,7.896,43,9,43L9,43z" style="fill:#E0C494;"/><path d="M5,43L5,43c1.104,0,2-0.896,2-2v-4c0-1.104-0.896-2-2-2c-1.104,0-2,0.896-2,2v4  C3,42.104,3.896,43,5,43L5,43z" style="fill:#E0C494;"/></svg>