<svg enable-background="new 0 0 64 64" viewBox="0 0 64 64" xmlns="http://www.w3.org/2000/svg"><path d="m17 29h2v-8h-2c-2.209 0-4 1.791-4 4s1.791 4 4 4z" fill="#e0c494"/><path d="m57 21h-2v8h2c2.209 0 4-1.791 4-4s-1.791-4-4-4z" fill="#e0c494"/><path d="m62 54.574c-1.238-.896-2.654-1.553-4.19-1.874l-9.63-2.03c-.26-.05-.5-.13-.74-.23h-.01-20.86c-.24.1-.49.18-.75.23l-9.63 2.03c-3.83.8-6.95 3.58-8.19 7.3v2h54z" fill="#62c4c3"/><path d="m47.43 50.44-10.431 5.56-10.429-5.56c1.449-.631 2.429-2.061 2.429-3.69v-2.63h16v2.63c0 1.629.981 3.059 2.431 3.69z" fill="#f2daae"/><path d="m29 46.324c2.451 1.072 5.153 1.676 8 1.676s5.549-.604 8-1.676v-2.204h-16z" fill="#e0c494"/><path d="m43 56h13v4h-13z" fill="#42a5b2"/><path d="m45 44.12c-2.41 1.2-5.12 1.88-8 1.88s-5.59-.68-8-1.88c-5.36-2.66-9.2-7.91-9.89-14.12h35.78c-.69 6.21-4.53 11.46-9.89 14.12z" fill="#62c4c3"/><path d="m55 20v1c-3.31 0-6-2.69-6-6v-1h-27.79c-.33 0-.67-.03-.99-.08-.05-.01-.1-.01-.14-.02-2.54-.46-4.65-2.42-5.02-5.03-.48-3.42 1.93-6.38 5.14-6.81.43 1.13 1.52 1.94 2.8 1.94h16c8.84 0 16 7.16 16 16z" fill="#efbc2e"/><path d="m55 21v7c0 .68-.04 1.34-.11 2h-35.78c-.07-.66-.11-1.32-.11-2v-8c0-2.15.39-4.19 1.08-6.1.04.01.09.01.14.02.32.05.65.08.99.08h27.79v1c0 3.31 2.69 6 6 6z" fill="#f2daae"/><path d="m32 25c0 1.104-.896 2-2 2s-2-.896-2-2 .896-2 2-2 2 .896 2 2z" fill="#3a4249"/><path d="m46 25c0 1.104-.896 2-2 2s-2-.896-2-2 .896-2 2-2 2 .896 2 2z" fill="#3a4249"/><path d="m37 56-1-.533v6.533h2v-6.533z" fill="#42a5b2"/><path d="m3 37v25h16v-9l4-7v-3c0-1.104-.896-2-2-2h-2v-14c0-1.104-.896-2-2-2s-2 .896-2 2v10c0-1.104-.896-2-2-2s-2 .896-2 2c0-1.104-.896-2-2-2s-2 .896-2 2c0-1.104-.896-2-2-2s-2 .896-2 2z" fill="#f2daae"/><g fill="#e0c494"><path d="m13 49c0-2.209 1.791-4 4-4h3-1c-2.209 0-4-1.791-4-4h6c1.104 0 2 .896 2 2v3l-4 7h-2c-2.209 0-4-1.791-4-4z"/><path d="m13 43c1.104 0 2-.896 2-2v-4c0-1.104-.896-2-2-2s-2 .896-2 2v4c0 1.104.896 2 2 2z"/><path d="m9 43c1.104 0 2-.896 2-2v-4c0-1.104-.896-2-2-2s-2 .896-2 2v4c0 1.104.896 2 2 2z"/><path d="m5 43c1.104 0 2-.896 2-2v-4c0-1.104-.896-2-2-2s-2 .896-2 2v4c0 1.104.896 2 2 2z"/></g></svg>