<svg enable-background="new 0 0 64 64" viewBox="0 0 64 64" xmlns="http://www.w3.org/2000/svg"><path d="m17 2h30v60h-30z" fill="#f2daae"/><path d="m47 21h15v41h-15z" fill="#e0c494"/><path d="m51 25h6v6h-6z" fill="#ef941d"/><path d="m51 35h6v6h-6z" fill="#ef941d"/><path d="m51 45h6v6h-6z" fill="#ef941d"/><path d="m2 21h15v41h-15z" fill="#e0c494"/><path d="m7 25h6v6h-6z" fill="#ef941d"/><g fill="#efbc2e"><path d="m21 23h4v4h-4z"/><path d="m30 23h4v4h-4z"/><path d="m39 23h4v4h-4z"/><path d="m21 31h4v4h-4z"/><path d="m30 31h4v4h-4z"/><path d="m39 31h4v4h-4z"/><path d="m21 39h4v4h-4z"/><path d="m30 39h4v4h-4z"/><path d="m39 39h4v4h-4z"/></g><path d="m7 35h6v6h-6z" fill="#ef941d"/><path d="m7 45h6v6h-6z" fill="#ef941d"/><path d="m38 11h-4v-4h-4v4h-4v4h4v4h4v-4h4z" fill="#42a5b2"/><path d="m28 49h8v13h-8z" fill="#3a4249"/><path d="m25 48h14v2h-14z" fill="#3a4249"/><path d="m42 56h2v2h-2z" fill="#3a4249"/><path d="m42 52h2v2h-2z" fill="#3a4249"/><path d="m42 48h2v2h-2z" fill="#3a4249"/></svg>