<svg enable-background="new 0 0 64 64" viewBox="0 0 64 64" xmlns="http://www.w3.org/2000/svg"><circle cx="32" cy="32" fill="#aa494a" r="21"/><circle cx="32" cy="32" fill="#d36767" r="19"/><g fill="#3a4249"><path d="m31 7h2v8h-2z"/><path d="m22.458 8.815h2v8.001h-2z" transform="matrix(.9136 -.4067 .4067 .9136 -3.1842 10.6484)"/><path d="m18.656 11.01h2v8.001h-2z" transform="matrix(.809 -.5879 .5879 .809 -5.069 14.4225)"/><path d="m12.813 17.5h2v8h-2z" transform="matrix(.5 -.866 .866 .5 -11.7129 22.7126)"/><path d="m10.115 25.805h2v8.001h-2z" transform="matrix(.1045 -.9945 .9945 .1045 -19.6886 37.745)"/><path d="m7.114 33.195h8.001v2h-8.001z" transform="matrix(.9945 -.1045 .1045 .9945 -3.5119 1.3484)"/><path d="m9.813 41.5h8v2h-8z" transform="matrix(.8661 -.4999 .4999 .8661 -19.3966 12.5975)"/><path d="m15.656 47.989h8.001v2h-8.001z" transform="matrix(.5878 -.809 .809 .5878 -31.5301 36.094)"/><path d="m19.458 50.185h8.001v2h-8.001z" transform="matrix(.4067 -.9135 .9135 .4067 -32.8426 51.7971)"/><path d="m31 49h2v8h-2z"/><path d="m39.541 47.184h2v8.001h-2z" transform="matrix(.9136 -.4067 .4067 .9136 -17.3127 20.9128)"/><path d="m43.344 44.989h2v8.001h-2z" transform="matrix(.809 -.5879 .5879 .809 -20.3275 35.4261)"/><path d="m49.187 38.5h2v8h-2z" transform="matrix(.5 -.866 .866 .5 -11.7127 64.7131)"/><path d="m51.885 30.194h2v8.001h-2z" transform="matrix(.1045 -.9945 .9945 .1045 13.3521 83.2179)"/><path d="m48.885 28.805h8.001v2h-8.001z" transform="matrix(.9945 -.1045 .1045 .9945 -2.8246 5.6887)"/><path d="m46.187 20.5h8v2h-8z" transform="matrix(.8661 -.4999 .4999 .8661 -4.0268 27.9688)"/><path d="m40.343 14.01h8.001v2h-8.001z" transform="matrix(.5878 -.809 .809 .5878 6.1341 42.0606)"/><path d="m36.541 11.815h8.001v2h-8.001z" transform="matrix(.4067 -.9135 .9135 .4067 12.3449 44.6396)"/></g><path d="m44 32c-.382 0-.747-.22-.913-.591-.473-1.056.258-2.017.792-2.719.205-.269.63-.83.616-1.015-.136-.034-.78.154-1.123.253-.832.24-1.97.566-2.728-.26-.766-.738-.416-1.836-.134-2.72.088-.274.238-.744.256-1.001-.19.111-.596.43-.83.613-.724.568-1.626 1.273-2.621.787-.98-.414-1.021-1.564-1.053-2.489-.009-.268-.025-.716-.083-.972-.132.186-.38.589-.527.828-.483.786-1.082 1.768-2.189 1.642-1.058-.059-1.484-1.126-1.827-1.984-.1-.251-.269-.672-.412-.895-.057.217-.152.672-.208.942-.189.905-.424 2.032-1.514 2.283-1.011.299-1.773-.562-2.388-1.25-.186-.208-.5-.562-.714-.719.015.222.081.695.12.973.128.917.289 2.06-.648 2.676-.846.632-1.86.106-2.674-.315-.27-.14-.741-.384-.987-.431.047.216.301.704.446.98.43.823.964 1.848.313 2.776-.558.912-1.733.832-2.59.773-.405-.028-1.161-.079-1.238.093-.226.504-.816.729-1.321.505-.504-.225-.73-.816-.505-1.321.646-1.448 2.244-1.339 3.201-1.273.207.014.485.033.687.028-.083-.203-.223-.473-.319-.657-.463-.888-1.163-2.229-.153-3.329 1.127-1.094 2.542-.36 3.387.078.145.075.327.169.49.245-.017-.182-.045-.389-.068-.552-.139-.995-.35-2.499.978-3.151 1.406-.601 2.42.536 3.09 1.288.1.112.225.252.343.375.04-.162.078-.342.108-.487.193-.923.516-2.469 1.982-2.63 1.509-.095 2.081 1.317 2.453 2.25.054.136.122.305.189.457.093-.139.188-.295.266-.421.527-.856 1.327-2.147 2.755-1.818 1.469.419 1.524 1.998 1.557 2.941.005.153.012.344.025.516.141-.102.293-.221.415-.317.796-.624 1.999-1.567 3.243-.748 1.238.915.777 2.36.472 3.317-.058.179-.132.412-.18.605.187-.042.41-.106.583-.156.917-.264 2.454-.707 3.339.56.829 1.339-.083 2.54-.687 3.334-.174.229-.457.601-.523.782.163.482-.065 1.019-.539 1.231-.134.062-.273.09-.41.09z" fill="#f2daae"/><circle cx="32" cy="5" fill="#62c4c3" r="3"/><circle cx="8.617" cy="18.5" fill="#62c4c3" r="3"/><path d="m7.117 42.902c-1.434.828-1.926 2.664-1.098 4.098s2.664 1.926 4.098 1.098 1.926-2.664 1.098-4.098-2.664-1.926-4.098-1.098z" fill="#62c4c3"/><circle cx="32" cy="59" fill="#62c4c3" r="3"/><path d="m56.883 42.902c-1.434-.828-3.27-.336-4.098 1.098s-.336 3.27 1.098 4.098 3.27.336 4.098-1.098.336-3.27-1.098-4.098z" fill="#62c4c3"/><circle cx="55.383" cy="18.5" fill="#62c4c3" r="3"/></svg>