<svg enable-background="new 0 0 64 64" viewBox="0 0 64 64" xmlns="http://www.w3.org/2000/svg"><g fill="#62c4c3"><path d="m4 20h7l5-6 2 6 3 4-2 5-2 3h-3v2l3 4 8 2-6 14-3 1v-11l-5-5-4-13h-4v-4z"/><path d="m31 23-2 3-3 2 4 2-5 3 2 3 5 1v4l2 3h2l2-6v-4h3l2 3 3-3 1 2v3l8 2-3-4-1-3 3-3v-5l7-2v-3l-10-5h-3l-11 6-3-2h-3z"/><path d="m50 50v-3l3-2h4l2 3v3l-5-2z"/><path d="m23 10h6v5l-4 6-3-5-2-1v-5z"/></g><path d="m48.036 29.264c-.021-.075-2.119-7.523-7.617-11.45-6.571-4.693-16.127-2.852-16.223-2.833l-.393-1.961c.425-.085 10.508-2.026 17.777 3.167 6.088 4.348 8.293 12.218 8.384 12.551z" fill="#3a4249"/><path d="m48.294 29.709c-.048-.048-4.911-4.766-14.394-5.714-9.594-.962-16.439 1.896-16.507 1.924l-.787-1.838c.296-.127 7.353-3.089 17.494-2.076 10.237 1.024 15.393 6.074 15.607 6.288z" fill="#3a4249"/><path d="m56.782 47.624-1.564-1.247c.043-.055 4.342-5.536 2.833-10.061-1.78-5.34-9.102-6.315-9.175-6.324l-.121-.022c-.053-.013-5.636-1.321-14.404 1.967-7.595 2.848-12.455 10.516-12.503 10.593l-1.696-1.06c.211-.338 5.274-8.323 13.497-11.407 9.005-3.375 14.834-2.208 15.533-2.048.82.113 8.662 1.354 10.767 7.668 1.853 5.561-2.962 11.683-3.167 11.941z" fill="#3a4249"/></svg>