<svg enable-background="new 0 0 64 64" viewBox="0 0 64 64" xmlns="http://www.w3.org/2000/svg"><path d="m32 62h-29v-2c.62-1.86 1.71-3.48 3.12-4.74 1.42-1.26 3.16-2.16 5.07-2.56l2.2-.46 7.43-1.57c1.85-.39 3.18-2.02 3.18-3.92v-2.64h16v2.64c0 1.9 1.33 3.53 3.18 3.92l7.43 1.57 2.2.46c3.83.8 6.95 3.58 8.19 7.3v2z" fill="#3a4249"/><path d="m43.18 50.67 7.43 1.57c-3.9 4.06-10.78 6.76-18.61 6.76s-14.71-2.7-18.61-6.76l7.43-1.57c1.85-.39 3.18-2.02 3.18-3.92v-2.64h16v2.64c0 1.9 1.33 3.53 3.18 3.92z" fill="#f2daae"/><path d="m50 11h-2.428c1.243 2.146 2.07 4.563 2.334 7.153.059.273.094.556.094.847v1 8 7c0 6.075 4.925 11 11 11v-24c0-6.075-4.925-11-11-11z" fill="#aa494a"/><path d="m50 21v7c0 9.94-8.06 18-18 18s-18-8.06-18-18v-7-1c0-9.94 8.06-18 18-18 4.97 0 9.47 2.02 12.73 5.27 3.25 3.26 5.27 7.76 5.27 12.73z" fill="#f2daae"/><path d="m44.001 42c-.502-.231-.721-.826-.49-1.327l5.162-11.184c.232-.502.826-.72 1.327-.489h.001c.501.231.72.826.489 1.327l-5.162 11.184c-.233.502-.827.72-1.327.489z" fill="#f7eedc"/><path d="m18.673 41.511-5.162-11.184c-.232-.502-.012-1.096.489-1.327h.001c.501-.232 1.095-.013 1.326.489l5.162 11.184c.232.501.013 1.095-.489 1.327-.502.231-1.096.012-1.327-.489z" fill="#f7eedc"/><path d="m44 30-12-2-12 2v12c7.111 5.333 16.889 5.333 24 0z" fill="#62c4c3"/><circle cx="25" cy="25" fill="#3a4249" r="2"/><circle cx="39" cy="25" fill="#3a4249" r="2"/><path d="m12 28h2v-8h-2c-2.209 0-4 1.791-4 4s1.791 4 4 4z" fill="#e0c485"/><path d="m52 20h-2v8h2c2.209 0 4-1.791 4-4s-1.791-4-4-4z" fill="#e0c485"/><path d="m50 20v1c-12.71 0-23-4.92-23-11 0 6.08-5.81 11-13 11v-1c0-9.94 8.06-18 18-18 4.97 0 9.47 2.02 12.73 5.27 3.25 3.26 5.27 7.76 5.27 12.73z" fill="#d36767"/><path d="m18.59 29.892-4.698-5.481c-.36-.42-.311-1.051.108-1.411.42-.359 1.051-.311 1.41.109l4.699 5.481c.359.42.311 1.051-.109 1.41-.419.36-1.051.311-1.41-.108z" fill="#f7eedc"/><path d="m44 30c-.442-.332-.531-.958-.2-1.4l4.8-6.4c.332-.442.959-.532 1.4-.2.442.332.531.958.2 1.4l-4.8 6.4c-.332.442-.959.532-1.4.2z" fill="#f7eedc"/><g fill="#3a4249"><path d="m20 34c-.108-.542.243-1.068.784-1.177l3.039-.607c.542-.109 1.069.242 1.177.784s-.243 1.068-.784 1.177l-3.039.607c-.542.109-1.069-.242-1.177-.784z"/><path d="m23.823 39.784-3.039-.607c-.542-.109-.893-.636-.784-1.177.108-.542.635-.893 1.177-.784l3.039.607c.541.108.892.635.784 1.177-.109.541-.635.892-1.177.784z"/><path d="m42.823 34.784-3.039-.607c-.542-.109-.893-.636-.784-1.177.108-.542.635-.893 1.177-.784l3.039.607c.541.108.892.635.784 1.177-.109.541-.635.892-1.177.784z"/><path d="m39 39c-.108-.542.243-1.068.784-1.177l3.039-.607c.542-.109 1.069.242 1.177.784s-.243 1.068-.784 1.177l-3.039.607c-.542.109-1.069-.242-1.177-.784z"/></g></svg>