<svg enable-background="new 0 0 64 64" viewBox="0 0 64 64" xmlns="http://www.w3.org/2000/svg"><path d="m38 62h-26c-2.209 0-4-1.791-4-4v-52c0-2.209 1.791-4 4-4h26c2.209 0 4 1.791 4 4v52c0 2.209-1.791 4-4 4z" fill="#caeae9"/><path d="m42 49h20v-24h-14v-11c-3.313 0-6 2.687-6 6z" fill="#f2daae"/><path d="m8 28c0 1.657-1.343 3-3 3s-3-1.343-3-3 1.343-3 3-3 3 1.343 3 3z" fill="#f2daae"/><path d="m8 34c0 1.657-1.343 3-3 3s-3-1.343-3-3 1.343-3 3-3 3 1.342 3 3z" fill="#f2daae"/><path d="m8 40c0 1.657-1.343 3-3 3s-3-1.343-3-3 1.343-3 3-3 3 1.342 3 3z" fill="#f2daae"/><path d="m8 46c0 1.657-1.343 3-3 3s-3-1.343-3-3 1.343-3 3-3 3 1.342 3 3z" fill="#f2daae"/><path d="m42 8h-34v-2c0-2.209 1.791-4 4-4h26c2.209 0 4 1.791 4 4z" fill="#62c4c3"/><path d="m8 56h34v2c0 2.209-1.791 4-4 4h-26c-2.209 0-4-1.791-4-4z" fill="#62c4c3"/><path d="m12 15h10v8h-10z" fill="#efbc2e"/><path d="m28 28h10v8h-10z" fill="#efbc2e"/><path d="m25 13.999h14v2h-14z" fill="#3a4249"/><path d="m25 17.999h14v2h-14z" fill="#3a4249"/><path d="m25 21.999h10v2h-10z" fill="#3a4249"/><path d="m12 41h10v8h-10z" fill="#efbc2e"/><g fill="#3a4249"><path d="m25 39.999h14v2h-14z"/><path d="m25 43.999h14v2h-14z"/><path d="m25 47.999h2v2h-2z"/><path d="m11 26.999h14v2h-14z"/><path d="m11 30.999h14v2h-14z"/><path d="m11 34.999h14v2h-14z"/><path d="m37 21.999h2v2h-2z"/><path d="m29 47.999h2v2h-2z"/><path d="m33 47.999h2v2h-2z"/><path d="m37 47.999h2v2h-2z"/></g></svg>