<?xml version="1.0" ?><svg id="_x31_-outline-expand" style="enable-background:new 0 0 64 64;" version="1.1" viewBox="0 0 64 64" xml:space="preserve" xmlns="http://www.w3.org/2000/svg" xmlns:xlink="http://www.w3.org/1999/xlink"><path d="M62,41H2v17c0,2.209,1.791,4,4,4h52c2.209,0,4-1.791,4-4V41z" style="fill:#42A5B2;"/><polygon points="52,21 12,21 2,41 62,41 " style="fill:#62C4C3;"/><path d="M17,27c-1.104,0-2,0.896-2,2v2c0,1.104,0.896,2,2,2h30c1.104,0,2-0.896,2-2v-2c0-1.104-0.896-2-2-2  H17z" style="fill:#3A4249;"/><path d="M19,33V2h12.586C32.491,2,33.36,2.359,34,3c0.64,0.641,1.509,1,2.414,1H45v29H19z" style="fill:#F2DAAE;"/><path d="M40,51c0,2.762-3.582,5-8,5c-4.418,0-8-2.238-8-5c0-2.762,3.582-5,8-5C36.418,46,40,48.238,40,51  L40,51z" style="fill:#EFBC2E;"/><rect height="2" style="fill:#3A4249;" width="2" x="57" y="44"/><rect height="2" style="fill:#3A4249;" width="2" x="53" y="44"/><rect height="2" style="fill:#3A4249;" width="2" x="49" y="44"/><path d="M45,18.659c-4.842,6.004-15.648,10.278-26,11.164V33h26V18.659z" style="fill:#E0C494;"/></svg>