<svg enable-background="new 0 0 64 64" viewBox="0 0 64 64" xmlns="http://www.w3.org/2000/svg"><g fill="#efbc2e"><path d="m31.906 50.965h2v3.333h-2z" transform="matrix(.536 -.8442 .8442 .536 -29.1637 52.2029)"/><path d="m27.445 51.776h2v4.979h-2z" transform="matrix(.2071 -.9783 .9783 .2071 -30.5351 70.8548)"/><path d="m24 55.499h5.625v2h-5.625z"/><path d="m25.956 57.734h4.979v2h-4.979z" transform="matrix(.9783 -.207 .207 .9783 -11.5415 7.1601)"/><path d="m31.24 59.369h3.332v2.001h-3.332z" transform="matrix(.8443 -.5359 .5359 .8443 -27.2264 27.0323)"/><path d="m38 59.937h2v2.063h-2z"/><path d="m44.093 58.704h2.001v3.331h-2.001z" transform="matrix(.5359 -.8443 .8443 .5359 -30.0405 66.0901)"/><path d="m48.555 56.244h2v4.979h-2z" transform="matrix(.2069 -.9784 .9784 .2069 -18.1623 95.0622)"/><path d="m48.375 55.499h5.625v2h-5.625z"/><path d="m47.065 53.265h4.979v2h-4.979z" transform="matrix(.9783 -.207 .207 .9783 -10.1594 11.4328)"/><path d="m43.428 51.631h3.332v1.999h-3.332z" transform="matrix(.844 -.5363 .5363 .844 -21.1924 32.3932)"/></g><path d="m50 56.5c0 2.485-4.925 4.5-11 4.5s-11-2.015-11-4.5 4.925-4.5 11-4.5 11 2.014 11 4.5z" fill="#42a5b2"/><path d="m17 20c0 2.762 2.238 5 5 5s5-2.238 5-5-2.238-5-5-5-5 2.238-5 5z" fill="#62c4c3"/><path d="m16 40.059-4 2-2.966-6.675c-.631-1.419-.384-3.075.635-4.247l5.331-6.138h17l6-6 3 3-7 7h-7v9.06l10 2 4 12-4 1-3-8-11-2-2 17.94h-5l1-19.94v-11l-4 4z" fill="#62c4c3"/><path d="m38 13v-10l11 5z" fill="#d36767"/><path d="m37 2.999h2v17.001h-2z" fill="#3a4249"/><path d="m24.891 24.832c-1.703-.476-2.891-2.052-2.891-3.833h2c0 .888.588 1.672 1.43 1.907z" fill="#3a4249"/></svg>