<svg enable-background="new 0 0 64 64" viewBox="0 0 64 64" xmlns="http://www.w3.org/2000/svg"><path d="m29 16c0 7.732-6.268 14-14 14s-14-6.268-14-14 6.268-14 14-14c7.733 0 14 6.268 14 14z" fill="#e0c494"/><path d="m27.5 16c0 6.904-5.596 12.5-12.5 12.5-6.903 0-12.5-5.596-12.5-12.5s5.597-12.5 12.5-12.5c6.904 0 12.5 5.596 12.5 12.5z" fill="#f2daae"/><g fill="#efbc2e"><path d="m14 7h2v4h-2z"/><path d="m13 6h4v2h-4z"/><path d="m7.938 10.5h2v4h-2z" transform="matrix(.5 -.866 .866 .5 -6.3564 13.9901)"/><path d="m5.206 10.5h4.001v2h-4.001z" transform="matrix(.4999 -.8661 .8661 .4999 -6.3562 11.9919)"/><path d="m6.938 18.5h4v2h-4z" transform="matrix(.8661 -.4999 .4999 .8661 -8.5514 7.0799)"/><path d="m6.206 18.5h2v4.001h-2z" transform="matrix(.8661 -.4999 .4999 .8661 -9.2833 6.348)"/><path d="m14 21h2v4h-2z"/><path d="m13 24h4v2h-4z"/><path d="m20.063 17.5h2v4h-2z" transform="matrix(.5 -.866 .866 .5 -6.3563 27.9903)"/><path d="m20.795 19.5h4.001v2h-4.001z" transform="matrix(.4999 -.8661 .8661 .4999 -6.3552 29.9937)"/><path d="m19.063 11.5h4v2h-4z" transform="matrix(.8661 -.4999 .4999 .8661 -3.4281 12.2039)"/><path d="m21.795 9.5h2v4.001h-2z" transform="matrix(.8661 -.4999 .4999 .8661 -2.6962 12.9358)"/></g><path d="m21 16c0 3.313-2.687 6-6 6s-6-2.687-6-6 2.687-6 6-6 6 2.687 6 6z" fill="#aa494a"/><path d="m19 16c0 2.208-1.791 4-4 4-2.208 0-4-1.791-4-4 0-2.208 1.791-4 4-4s4 1.792 4 4z" fill="#d36767"/><path d="m51.172 5.172h5.657v5.657h-5.657z" fill="#3a4249" transform="matrix(.7071 -.7071 .7071 .7071 10.1595 40.5272)"/><path d="m55.001.343h2v11.314h-2z" fill="#3a4249" transform="matrix(.7071 -.7071 .7071 .7071 12.1595 41.3557)"/><path d="m49 17 11 11v30c0 2.209-1.791 4-4 4h-30v-4c0-1.104.896-2 2-2h27v-27l-9-9z" fill="#42a5b2"/><path d="m34 29h16v10h-16z" fill="#42a5b2"/><path d="m36 29v-9l13-13 6 6-7 7v9z" fill="#62c4c3"/><path d="m40 39h4v4h-4z" fill="#efbc2e"/><path d="m32 46h23v2h-23z" fill="#3a4249"/><path d="m36 52h12v4h-12z" fill="#efbc2e"/><path d="m62 37c0 2.209-1.791 4-4 4s-4-1.791-4-4 1.791-4 4-4 4 1.791 4 4z" fill="#efbc2e"/><path d="m60 37c0 1.104-.895 2-2 2-1.104 0-2-.895-2-2 0-1.104.895-2 2-2s2 .896 2 2z" fill="#ef941d"/><path d="m13 32h2v2h-2z" fill="#3a4249"/><path d="m13 36h2v2h-2z" fill="#3a4249"/><path d="m13 40h2v2h-2z" fill="#3a4249"/><path d="m13 44h2v2h-2z" fill="#3a4249"/><path d="m13 48h2v2h-2z" fill="#3a4249"/><path d="m13 52h2v2h-2z" fill="#3a4249"/><path d="m13 56h2v2h-2z" fill="#3a4249"/><path d="m17 56h2v2h-2z" fill="#3a4249"/><path d="m21 56h2v2h-2z" fill="#3a4249"/><path d="m30 10h2v2h-2z" fill="#3a4249"/><path d="m34 10h2v2h-2z" fill="#3a4249"/><path d="m38 10h2v2h-2z" fill="#3a4249"/></svg>