<svg enable-background="new 0 0 64 64" viewBox="0 0 64 64" xmlns="http://www.w3.org/2000/svg"><g fill="#62c4c3"><path d="m10 37.43h-2v-.352c-.131-.064-.26-.132-.388-.202l.969-1.75c.254.141.518.267.79.375l.629.251z"/><path d="m5.748 35.493c-.556-.539-1.042-1.149-1.442-1.815l1.714-1.031c.311.518.688.992 1.119 1.409zm-2.374-3.926c-.223-.744-.351-1.512-.378-2.281l1.999-.072c.021.6.121 1.198.295 1.779zm1.79-4.143-1.949-.447c.173-.754.446-1.485.81-2.173l1.768.936c-.283.533-.495 1.1-.629 1.684zm1.671-3.151-1.471-1.355c.249-.271.52-.531.806-.774l.814-.691 1.295 1.523-.812.69c-.224.191-.435.395-.632.607zm3.017-2.634-1.295-1.523 1.573-1.337 1.295 1.523zm3.145-2.674-1.295-1.523 1.573-1.336 1.295 1.523zm3.146-2.673-1.296-1.523 1.572-1.337 1.296 1.523zm3.145-2.674-1.295-1.523 1.573-1.337 1.295 1.523zm3.145-2.674-1.295-1.523 1.572-1.336 1.295 1.523zm3.145-2.673-1.295-1.523 1.573-1.337 1.295 1.523zm3.146-2.673-1.296-1.523 1.572-1.338 1.296 1.523z"/><path d="m31.886 2.91-1.294-1.525 1.408-1.196 1.409 1.196-1.295 1.525-.114-.098z"/><path d="m58.272 35.476-1.397-1.43c.431-.421.806-.897 1.116-1.415l1.716 1.027c-.399.665-.881 1.278-1.435 1.818zm2.362-3.933-1.917-.568c.173-.584.271-1.183.291-1.78l1.999.066c-.026.768-.152 1.536-.373 2.282zm-1.801-4.137c-.137-.586-.35-1.152-.633-1.682l1.764-.943c.366.685.641 1.414.816 2.17zm-1.681-3.147c-.192-.208-.397-.405-.618-.592l-.83-.706 1.296-1.523.829.705c.281.238.545.492.791.757zm-3.02-2.635-1.573-1.337 1.295-1.523 1.573 1.337zm-3.145-2.673-1.573-1.337 1.295-1.523 1.573 1.337zm-3.146-2.674-1.572-1.337 1.296-1.523 1.572 1.337zm-3.145-2.673-1.573-1.337 1.295-1.523 1.573 1.337zm-3.146-2.674-1.572-1.337 1.296-1.523 1.572 1.337zm-3.144-2.673-1.573-1.337 1.295-1.523 1.573 1.337zm-3.145-2.674-1.573-1.337 1.295-1.523 1.573 1.337z"/><path d="m56 37.43h-2v-1.678l.629-.251c.272-.108.535-.234.79-.375l.969 1.75c-.127.07-.257.138-.388.202z"/><path d="m49.013 63.001-.003-2c.56-.001 1.109-.094 1.632-.277l.66 1.889c-.735.256-1.506.387-2.289.388zm-2.001-.001h-1.999v-2h1.999zm-3.998 0h-1.999v-2h1.999zm-3.998 0h-1.999v-2h1.999zm-3.998 0h-1.999v-2h1.999zm-3.998 0h-1.999v-2h1.999zm-3.998 0h-1.999v-2h1.999zm-3.998 0h-1.999v-2h1.999zm-3.998 0h-1.999v-2h1.999zm-3.998 0h-.028c-.774 0-1.535-.126-2.26-.374l.647-1.893c.517.177 1.06.267 1.613.267zm-4.328-1.479c-.615-.48-1.143-1.055-1.568-1.707l1.676-1.092c.304.467.682.878 1.123 1.223zm42.634-.027-1.239-1.57c.438-.346.814-.76 1.115-1.229l1.683 1.08c-.421.657-.945 1.235-1.559 1.719zm-45.129-3.811c-.136-.548-.205-1.114-.205-1.683v-.542h2v.542c0 .407.049.812.146 1.202zm47.601-.042-1.944-.471c.092-.38.138-.774.138-1.17v-.579h2v.579c0 .555-.065 1.106-.194 1.641zm-45.806-4.182h-2v-1.999h2zm46-.037h-2v-1.999h2zm-46-3.961h-2v-1.999h2zm46-.037h-2v-1.999h2zm-46-3.961h-2v-1.998h2zm46-.037h-2v-1.999h2zm-46-3.96h-2v-1.999h2zm46-.038h-2v-1.999h2z"/><path d="m12 32h2v2h-2z"/><path d="m9.576 33.391c-.734-.404-1.361-1.003-1.812-1.729l1.699-1.055c.271.436.644.793 1.078 1.032zm-2.572-4.095c-.007-.11-.011-.22-.011-.331 0-.75.165-1.469.488-2.135l1.799.875c-.19.392-.287.815-.287 1.26 0 .066.002.133.006.198zm3.312-2.801-1.296-1.523 1.54-1.31 1.296 1.523zm3.08-2.618-1.295-1.523 1.54-1.309 1.295 1.523zm3.079-2.618-1.295-1.523 1.54-1.309 1.295 1.523zm3.081-2.617-1.296-1.523 1.54-1.31 1.296 1.523zm3.079-2.619-1.296-1.523 1.54-1.31 1.296 1.523zm3.079-2.618-1.295-1.523 1.54-1.309 1.295 1.523zm3.08-2.618-1.295-1.523 1.54-1.309 1.295 1.523z"/><path d="m31.886 8.16-1.294-1.525 1.408-1.196 1.409 1.196-1.295 1.525-.114-.098z"/><path d="m54.442 33.382-.972-1.748c.434-.241.805-.6 1.073-1.036l1.704 1.047c-.447.728-1.072 1.33-1.805 1.737zm2.557-4.104-1.996-.129c.004-.062.006-.123.006-.185 0-.448-.099-.877-.292-1.271l1.796-.881c.329.671.496 1.395.497 2.151-.002.106-.005.211-.011.315zm-3.325-2.794-1.54-1.309 1.295-1.523 1.54 1.309zm-3.081-2.617-1.54-1.31 1.296-1.523 1.54 1.31zm-3.079-2.618-1.54-1.309 1.295-1.523 1.54 1.309zm-3.079-2.618-1.54-1.309 1.295-1.523 1.54 1.309zm-3.081-2.617-1.54-1.31 1.296-1.523 1.54 1.31zm-3.079-2.618-1.54-1.309 1.295-1.523 1.54 1.309zm-3.08-2.619-1.54-1.309 1.295-1.523 1.54 1.309z"/><path d="m50 32h2v2h-2z"/><path d="m48.664 59h-1.96v-2h1.96zm-3.92 0h-1.96v-2h1.96zm-3.921 0h-1.96v-2h1.96zm-3.92 0h-1.96v-2h1.96zm-3.92 0h-1.96v-2h1.96zm-3.92 0h-1.96v-2h1.96zm-3.919 0h-1.96v-2h1.96zm-3.92 0h-1.96v-2h1.96zm-3.921 0h-1.96v-2h1.96zm-4.472-.928c-.536-.561-.831-1.298-.831-2.073v-.434h2v.435c0 .259.098.504.277.691zm38.345-.006-1.451-1.377c.178-.186.275-.431.275-.689v-.44h2v.44c0 .771-.292 1.506-.824 2.066zm-37.176-4.461h-2v-1.96h2zm38-.005h-2v-1.96h2zm-38-3.914h-2v-1.96h2zm38-.006h-2v-1.96h2zm-38-3.914h-2v-1.96h2zm38-.006h-2v-1.96h2zm-38-3.914h-2v-1.96h2zm38-.006h-2v-1.96h2zm-38-3.914h-2v-1.96h2zm38-.006h-2v-1.96h2z"/></g><path d="m12 29 20-17 20 17h-5v25h-30v-25z" fill="#efbc2e"/><path d="m38.251 28.133c.475-.944.749-2.006.749-3.133 0-3.859-3.14-7-7-7s-7 3.141-7 7c0 1.127.274 2.189.749 3.133-2.709.577-4.749 2.987-4.749 5.867v9h4v11h14v-11h4v-9c0-2.88-2.039-5.29-4.749-5.867z" fill="#ef941d"/><path d="m37 25c0 2.762-2.239 5-5 5s-5-2.238-5-5 2.239-5 5-5 5 2.238 5 5z" fill="#62c4c3"/><path d="m37 30h-10c-2.209 0-4 1.791-4 4v7h4v13h5 5v-13h4v-7c0-2.209-1.791-4-4-4z" fill="#62c4c3"/><path d="m31 41h2v13h-2z" fill="#42a5b2"/><path d="m25 34h2v7h-2z" fill="#42a5b2"/><path d="m37 34h2v7h-2z" fill="#42a5b2"/></svg>