<svg enable-background="new 0 0 64 64" viewBox="0 0 64 64" xmlns="http://www.w3.org/2000/svg"><path d="m12 62v-5c0-3.313 2.687-6 6-6h38c3.313 0 6 2.687 6 6v5z" fill="#d36767"/><path d="m29 44.1v6.9l8 5 8-5v-6.9z" fill="#e0c485"/><path d="m49 16v-1h-27.789c-.382 0-.759-.036-1.128-.102-.688 1.908-1.083 3.956-1.083 6.102v8c0 9.941 8.059 18 18 18s18-8.059 18-18v-7c-3.313 0-6-2.687-6-6z" fill="#f2daae"/><path d="m27.447 29.895-.894-1.79 4.211-2.105-4.211-2.105.894-1.79 7.789 3.895z" fill="#3a4249"/><path d="m46.553 29.895-7.789-3.895 7.789-3.895.894 1.79-4.211 2.105 4.211 2.105z" fill="#3a4249"/><path d="m57 22h-2v8h2c2.209 0 4-1.791 4-4s-1.791-4-4-4z" fill="#e0c485"/><path d="m23 5c-1.283 0-2.369-.809-2.798-1.941-3.212.428-5.622 3.389-5.14 6.813.42 2.989 3.13 5.128 6.149 5.128h27.789v1c0 3.313 2.687 6 6 6v-1c0-8.836-7.164-16-16-16z" fill="#3a4249"/><g fill="#d36767"><path d="m32 40c0-2.761 2.239-5 5-5s5 2.239 5 5z"/><path d="m3.5 28h-2c0-1.053.386-1.631.668-2.054.221-.331.332-.497.332-.943 0-.447-.111-.613-.332-.944-.282-.423-.668-1.002-.668-2.054 0-1.053.386-1.632.667-2.055.222-.333.333-.499.333-.948 0-.448-.111-.615-.332-.946-.282-.424-.668-1.003-.668-2.056h2c0 .448.111.615.332.946.282.424.668 1.003.668 2.056 0 1.054-.386 1.633-.668 2.056-.221.332-.332.499-.332.947 0 .447.111.613.332.944.282.423.668 1.002.668 2.054s-.386 1.63-.668 2.053c-.221.331-.332.497-.332.944z"/><path d="m9.5 28h-2c0-1.053.386-1.631.668-2.054.221-.331.332-.497.332-.943 0-.447-.111-.613-.332-.944-.282-.423-.668-1.002-.668-2.054 0-1.053.386-1.632.667-2.055.222-.333.333-.499.333-.948 0-.448-.111-.615-.332-.946-.282-.424-.668-1.003-.668-2.056h2c0 .448.111.615.332.946.282.423.668 1.002.668 2.056s-.386 1.633-.668 2.056c-.221.332-.332.499-.332.947 0 .447.111.613.332.944.282.423.668 1.002.668 2.054s-.386 1.63-.668 2.053c-.221.331-.332.497-.332.944z"/><path d="m15.5 28h-2c0-1.053.386-1.631.668-2.054.221-.331.332-.497.332-.943 0-.447-.111-.613-.332-.944-.282-.423-.668-1.002-.668-2.054 0-1.053.386-1.632.667-2.055.221-.333.333-.499.333-.948 0-.448-.111-.615-.332-.946-.282-.424-.668-1.003-.668-2.056h2c0 .448.111.615.332.946.282.423.668 1.002.668 2.056s-.386 1.633-.668 2.056c-.221.332-.332.499-.332.947 0 .447.111.613.332.944.282.423.668 1.002.668 2.054s-.386 1.63-.668 2.053c-.221.331-.332.497-.332.944z"/></g><path d="m51 3s-5 6.249-5 10.667 2.239 5.333 5 5.333 5-.915 5-5.333-5-10.667-5-10.667z" fill="#62c4c3"/><path d="m47.008 17.496c.913 1.176 2.359 1.504 3.992 1.504 2.761 0 5-.915 5-5.333 0-1.567-.633-3.361-1.444-5.028-1.054 4.281-3.915 7.64-7.548 8.857z" fill="#42a5b2"/></svg>