<?xml version="1.0" ?><svg id="_x31_-outline-expand" style="enable-background:new 0 0 64 64;" version="1.1" viewBox="0 0 64 64" xml:space="preserve" xmlns="http://www.w3.org/2000/svg" xmlns:xlink="http://www.w3.org/1999/xlink"><path d="M12,62v-5c0-3.313,2.687-6,6-6h38c3.313,0,6,2.687,6,6v5H12z" style="fill:#D36767;"/><polygon points="29,44.1 29,51 37,56 45,51 45,44.1 " style="fill:#E0C485;"/><path d="M49,16v-1H21.211c-0.382,0-0.759-0.036-1.128-0.102C19.395,16.806,19,18.854,19,21v8  c0,9.941,8.059,18,18,18s18-8.059,18-18v-7C51.687,22,49,19.313,49,16z" style="fill:#F2DAAE;"/><polygon points="27.447,29.895 26.553,28.105 30.764,26 26.553,23.895 27.447,22.105 35.236,26 " style="fill:#3A4249;"/><polygon points="46.553,29.895 38.764,26 46.553,22.105 47.447,23.895 43.236,26 47.447,28.105 " style="fill:#3A4249;"/><path d="M57,22h-2v8h2c2.209,0,4-1.791,4-4S59.209,22,57,22z" style="fill:#E0C485;"/><path d="M23,5c-1.283,0-2.369-0.809-2.798-1.941c-3.212,0.428-5.622,3.389-5.14,6.813  c0.42,2.989,3.13,5.128,6.149,5.128H49v1c0,3.313,2.687,6,6,6v-1c0-8.836-7.164-16-16-16H23z" style="fill:#3A4249;"/><path d="M32,40c0-2.761,2.239-5,5-5c2.761,0,5,2.239,5,5H32z" style="fill:#D36767;"/><path d="M3.5,28h-2c0-1.053,0.386-1.631,0.668-2.054C2.389,25.615,2.5,25.449,2.5,25.003  c0-0.447-0.111-0.613-0.332-0.944C1.886,23.636,1.5,23.057,1.5,22.005c0-1.053,0.386-1.632,0.667-2.055  C2.389,19.617,2.5,19.451,2.5,19.002c0-0.448-0.111-0.615-0.332-0.946C1.886,17.632,1.5,17.053,1.5,16h2  c0,0.448,0.111,0.615,0.332,0.946C4.114,17.37,4.5,17.949,4.5,19.002c0,1.054-0.386,1.633-0.668,2.056  C3.611,21.39,3.5,21.557,3.5,22.005c0,0.447,0.111,0.613,0.332,0.944C4.114,23.372,4.5,23.951,4.5,25.003  c0,1.052-0.386,1.63-0.668,2.053C3.611,27.387,3.5,27.553,3.5,28z" style="fill:#D36767;"/><path d="M9.5,28h-2c0-1.053,0.386-1.631,0.668-2.054C8.389,25.615,8.5,25.449,8.5,25.003  c0-0.447-0.111-0.613-0.332-0.944C7.886,23.636,7.5,23.057,7.5,22.005c0-1.053,0.386-1.632,0.667-2.055  C8.389,19.617,8.5,19.451,8.5,19.002c0-0.448-0.111-0.615-0.332-0.946C7.886,17.632,7.5,17.053,7.5,16h2  c0,0.448,0.111,0.615,0.332,0.946c0.282,0.423,0.668,1.002,0.668,2.056c0,1.054-0.386,1.633-0.668,2.056  C9.611,21.39,9.5,21.557,9.5,22.005c0,0.447,0.111,0.613,0.332,0.944c0.282,0.423,0.668,1.002,0.668,2.054  c0,1.052-0.386,1.63-0.668,2.053C9.611,27.387,9.5,27.553,9.5,28z" style="fill:#D36767;"/><path d="M15.5,28h-2c0-1.053,0.386-1.631,0.668-2.054c0.221-0.331,0.332-0.497,0.332-0.943  c0-0.447-0.111-0.613-0.332-0.944c-0.282-0.423-0.668-1.002-0.668-2.054c0-1.053,0.386-1.632,0.667-2.055  c0.221-0.333,0.333-0.499,0.333-0.948c0-0.448-0.111-0.615-0.332-0.946C13.886,17.632,13.5,17.053,13.5,16h2  c0,0.448,0.111,0.615,0.332,0.946c0.282,0.423,0.668,1.002,0.668,2.056c0,1.054-0.386,1.633-0.668,2.056  c-0.221,0.332-0.332,0.499-0.332,0.947c0,0.447,0.111,0.613,0.332,0.944c0.282,0.423,0.668,1.002,0.668,2.054  c0,1.052-0.386,1.63-0.668,2.053C15.611,27.387,15.5,27.553,15.5,28z" style="fill:#D36767;"/><path d="M51,3c0,0-5,6.249-5,10.667S48.239,19,51,19s5-0.915,5-5.333S51,3,51,3z" style="fill:#62C4C3;"/><path d="M47.008,17.496C47.921,18.672,49.367,19,51,19c2.761,0,5-0.915,5-5.333  c0-1.567-0.633-3.361-1.444-5.028C53.502,12.92,50.641,16.279,47.008,17.496z" style="fill:#42A5B2;"/></svg>