<svg enable-background="new 0 0 64 64" viewBox="0 0 64 64" xmlns="http://www.w3.org/2000/svg"><path d="m4 62v-14l-2-14v-13c0-9.941 8.059-18 18-18s18 8.059 18 18l5 13h-6v16h-14v12z" fill="#f2daae"/><path d="m2 21v13h2c4.418 0 8-3.582 8-8-2.209 0-4-1.791-4-4s1.791-4 4-4v-5h20c5.522 0 10-4.477 10-10h-22c-9.941 0-18 8.059-18 18z" fill="#efbc2e"/><path d="m37 44h-4c-2.206 0-4-1.794-4-4h2c0 1.103.897 2 2 2h4z" fill="#3a4249"/><path d="m29 26.759c-1.869 0-3.627-.729-4.949-2.052l1.414-1.414c.945.945 2.201 1.466 3.535 1.466s2.59-.521 3.535-1.466l1.414 1.414c-1.322 1.323-3.08 2.052-4.949 2.052z" fill="#3a4249"/><path d="m49 24 1 7h6v-7z" fill="#d36767"/><path d="m44 16v8h8l3 14h7v-15l-5-7z" fill="#3a4249"/><path d="m42.172 7h5.657v2h-5.657z" fill="#3a4249" transform="matrix(.7071 -.7071 .7071 .7071 7.5233 34.163)"/><path d="m44.807 11h5.385v2h-5.385z" fill="#3a4249" transform="matrix(.9286 -.3711 .3711 .9286 -1.0617 18.4817)"/><path d="m61 55c0 3.866-3.134 7-7 7s-7-3.134-7-7 3.134-7 7-7 7 3.134 7 7z" fill="#62c4c3"/><g fill="#3a4249"><path d="m53 58.414-2.707-2.707 1.414-1.414 1.293 1.293 4.293-4.293 1.414 1.414z"/><path d="m57 41h2v2h-2z"/><path d="m57 45h2v2h-2z"/><path d="m42 54h2v2h-2z"/><path d="m38 54h2v2h-2z"/><path d="m34 54h2v2h-2z"/><path d="m30 54h2v2h-2z"/><path d="m26 54h2v2h-2z"/></g><path d="m23 50h-5l5 2z" fill="#e0c494"/></svg>