<?xml version="1.0" ?><svg id="_x31_-outline-expand" style="enable-background:new 0 0 64 64;" version="1.1" viewBox="0 0 64 64" xml:space="preserve" xmlns="http://www.w3.org/2000/svg" xmlns:xlink="http://www.w3.org/1999/xlink"><path d="M4,62V48L2,34V21c0-9.941,8.059-18,18-18s18,8.059,18,18l5,13h-6v16H23v12H4z" style="fill:#F2DAAE;"/><path d="M2,21v13h2c4.418,0,8-3.582,8-8c-2.209,0-4-1.791-4-4c0-2.209,1.791-4,4-4v-5h20  c5.522,0,10-4.477,10-10H20C10.059,3,2,11.059,2,21L2,21z" style="fill:#EFBC2E;"/><path d="M37,44h-4c-2.206,0-4-1.794-4-4h2c0,1.103,0.897,2,2,2h4V44z" style="fill:#3A4249;"/><path d="M29,26.759c-1.869,0-3.627-0.729-4.949-2.052l1.414-1.414c0.945,0.945,2.201,1.466,3.535,1.466  s2.59-0.521,3.535-1.466l1.414,1.414C32.627,26.03,30.869,26.759,29,26.759z" style="fill:#3A4249;"/><polygon points="49,24 50,31 56,31 56,24 " style="fill:#D36767;"/><polygon points="44,16 44,24 52,24 55,38 62,38 62,23 57,16 " style="fill:#3A4249;"/><rect height="2" style="fill:#3A4249;" transform="matrix(0.7071 -0.7071 0.7071 0.7071 7.5233 34.163)" width="5.657" x="42.172" y="7"/><rect height="2" style="fill:#3A4249;" transform="matrix(0.9286 -0.3711 0.3711 0.9286 -1.0617 18.4817)" width="5.385" x="44.807" y="11"/><path d="M61,55c0,3.866-3.134,7-7,7c-3.866,0-7-3.134-7-7s3.134-7,7-7C57.866,48,61,51.134,61,55L61,55z" style="fill:#62C4C3;"/><polygon points="53,58.414 50.293,55.707 51.707,54.293 53,55.586 57.293,51.293 58.707,52.707 " style="fill:#3A4249;"/><rect height="2" style="fill:#3A4249;" width="2" x="57" y="41"/><rect height="2" style="fill:#3A4249;" width="2" x="57" y="45"/><rect height="2" style="fill:#3A4249;" width="2" x="42" y="54"/><rect height="2" style="fill:#3A4249;" width="2" x="38" y="54"/><rect height="2" style="fill:#3A4249;" width="2" x="34" y="54"/><rect height="2" style="fill:#3A4249;" width="2" x="30" y="54"/><rect height="2" style="fill:#3A4249;" width="2" x="26" y="54"/><polygon points="23,50 18,50 23,52 " style="fill:#E0C494;"/></svg>