<svg enable-background="new 0 0 64 64" viewBox="0 0 64 64" xmlns="http://www.w3.org/2000/svg"><path d="m17 20c0-2.762-2.238-5-5-5s-5 2.238-5 5 2.238 5 5 5 5-2.238 5-5z" fill="#62c4c3"/><path d="m17 25h-10c-2.209 0-4 1.791-4 4v7h4v13h10v-13h4v-7c0-2.209-1.791-4-4-4z" fill="#62c4c3"/><path d="m57 20c0-2.762-2.238-5-5-5s-5 2.238-5 5 2.238 5 5 5 5-2.238 5-5z" fill="#d36767"/><path d="m57 25h-10c-2.209 0-4 1.791-4 4v7h4v13h10v-13h4v-7c0-2.209-1.791-4-4-4z" fill="#d36767"/><g fill="#efbc2e"><path d="m53 10.999h-2v-4c0-1.654-1.346-3-3-3h-23v-2h23c2.757 0 5 2.243 5 5z"/><path d="m13 11.999h-2v-5c0-2.757 2.243-5 5-5h7v2h-7c-1.654 0-3 1.346-3 3z"/><path d="m52 12.413-4.707-4.707 1.414-1.414 3.293 3.293 3.293-3.293 1.414 1.414z"/><path d="m35 61.999h-19c-2.757 0-5-2.243-5-5v-4h2v4c0 1.654 1.346 3 3 3h19z"/><path d="m37 59.999h2v2h-2z"/><path d="m48 61.999h-7v-2h7c1.654 0 3-1.346 3-3v-5h2v5c0 2.757-2.243 5-5 5z"/><path d="m15.293 57.706-3.293-3.293-3.293 3.293-1.414-1.414 4.707-4.707 4.707 4.707z"/></g><path d="m11 36h2v13h-2z" fill="#42a5b2"/><path d="m5 29h2v7h-2z" fill="#42a5b2"/><path d="m17 29h2v7h-2z" fill="#42a5b2"/><path d="m51 36h2v13h-2z" fill="#aa494a"/><path d="m45 29h2v7h-2z" fill="#aa494a"/><path d="m57 29h2v7h-2z" fill="#aa494a"/></svg>