<svg enable-background="new 0 0 64 64" viewBox="0 0 64 64" xmlns="http://www.w3.org/2000/svg"><g fill="#62c4c3"><path d="m11 17c0 1.657-1.343 3-3 3s-3-1.343-3-3 1.343-3 3-3 3 1.343 3 3z"/><path d="m7 8c0 1.104-.896 2-2 2s-2-.896-2-2 .896-2 2-2 2 .896 2 2z"/><path d="m20 9c0 2.209-1.343 3-3 3s-3-.791-3-3 3-6 3-6 3 3.791 3 6z"/><path d="m29 13c0 2.209-1.343 3-3 3s-3-.791-3-3 3-6 3-6 3 3.791 3 6z"/></g><path d="m25 23c-.55 0-1.05-.22-1.41-.59-.37-.36-.59-.86-.59-1.41 0-1.1.9-2 2-2h14v-1l-2.38-2.38c-.4-.4-.62-.94-.62-1.5 0-.58.24-1.12.62-1.5s.92-.62 1.5-.62c.56 0 1.1.22 1.5.62l5.38 5.38v1h17v16h-35c-.55 0-1.05-.22-1.41-.59-.37-.36-.59-.86-.59-1.41 0-1.1.9-2 2-2h-2c-.55 0-1.05-.22-1.41-.59-.37-.36-.59-.86-.59-1.41 0-1.1.9-2 2-2h-2c-.55 0-1.05-.22-1.41-.59-.37-.36-.59-.86-.59-1.41 0-1.1.9-2 2-2z" fill="#e0c494"/><path d="m36 41c-2.761 0-5 2.238-5 5h-8c0-1.226-.369-2.364-1-3.314v-6.686h10v-7c2.761 0 5-2.238 5-5s-2.239-5-5-5c-1.792 0-3.351.95-4.233 2.366-1.097-1.435-2.821-2.366-4.767-2.366-3.078 0-5.611 2.319-5.957 5.305-.646-.198-1.332-.305-2.043-.305-3.866 0-7 3.134-7 7 0 1.494.472 2.877 1.27 4.014-.09-.004-.179-.014-.27-.014-3.313 0-6 2.687-6 6s2.687 6 6 6c.715 0 1.398-.132 2.035-.361.319 3.013 2.867 5.361 5.965 5.361 1.539 0 2.938-.584 4-1.537v4.537c0 1.104.896 2 2 2s2-.896 2-2v-3c0-1.104.896-2 2-2s2 .896 2 2v7c0 1.104.896 2 2 2s2-.896 2-2v-9.022c.838.632 1.869 1.022 3 1.022 2.761 0 5-2.238 5-5s-2.239-5-5-5z" fill="#e7f4f7"/><path d="m16 34c-.55 0-1.05-.22-1.41-.59-.37-.36-.59-.86-.59-1.41 0-1.1.9-2 2-2h14v-1l-2.38-2.38c-.4-.4-.62-.94-.62-1.5 0-.58.24-1.12.62-1.5s.92-.62 1.5-.62c.56 0 1.1.22 1.5.62l5.38 5.38v1h26v16h-44c-.55 0-1.05-.22-1.41-.59-.37-.36-.59-.86-.59-1.41 0-1.1.9-2 2-2h-2c-.55 0-1.05-.22-1.41-.59-.37-.36-.59-.86-.59-1.41 0-1.1.9-2 2-2h-2c-.55 0-1.05-.22-1.41-.59-.37-.36-.59-.86-.59-1.41 0-1.1.9-2 2-2z" fill="#f2daae"/><path d="m16 33h13v2h-13z" fill="#e0c494"/><path d="m16 37h13v2h-13z" fill="#e0c494"/><path d="m18 41h11v2h-11z" fill="#e0c494"/><path d="m15.106 11.484c.518.353 1.172.516 1.894.516 1.657 0 3-.791 3-3 0-.931-.535-2.143-1.152-3.234-.446 2.643-1.87 4.783-3.742 5.718z" fill="#42a5b2"/><path d="m24.106 15.484c.518.353 1.172.516 1.894.516 1.657 0 3-.791 3-3 0-.931-.535-2.143-1.152-3.234-.446 2.643-1.87 4.783-3.742 5.718z" fill="#42a5b2"/></svg>