<svg width="679" height="121" viewBox="0 0 679 121" fill="none" xmlns="http://www.w3.org/2000/svg">
<circle cx="58.5" cy="64.5" r="45.5" fill="#959595"/>
<circle cx="58.5" cy="64.5" r="45.5" fill="url(#paint0_radial)"/>
<path d="M32.5 39.5C55.5 16.5 85.5 30.5 71.5 30.5C57.5 30.5 23.5 53 23.5 75.5C23.5 98 9.50001 62.5 32.5 39.5Z" fill="white" fill-opacity="0.2"/>
<circle cx="81" cy="40" r="5" fill="#393939" fill-opacity="0.4"/>
<circle cx="73" cy="77" r="5" fill="#393939" fill-opacity="0.4"/>
<circle cx="76" cy="90" r="5" fill="#393939" fill-opacity="0.4"/>
<circle cx="86" cy="78" r="5" fill="#393939" fill-opacity="0.4"/>
<circle cx="94" cy="65" r="5" fill="#393939" fill-opacity="0.4"/>
<circle cx="81" cy="65" r="5" fill="#393939" fill-opacity="0.4"/>
<circle cx="73" cy="55" r="5" fill="#393939" fill-opacity="0.4"/>
<circle cx="88" cy="52" r="5" fill="#393939" fill-opacity="0.4"/>
<path d="M29.3364 15.4928C31.7212 13.5449 35.3204 14.9091 35.8149 17.9483L37.6002 28.9203C38.0948 31.9596 35.1138 34.3944 32.2345 33.3031L21.8398 29.3632C18.9604 28.2719 18.3423 24.4729 20.727 22.525L29.3364 15.4928Z" fill="#CE3434"/>
<path d="M29.3364 15.4928C31.7212 13.5449 35.3204 14.9091 35.8149 17.9483L37.6002 28.9203C38.0948 31.9596 35.1138 34.3944 32.2345 33.3031L21.8398 29.3632C18.9604 28.2719 18.3423 24.4729 20.727 22.525L29.3364 15.4928Z" fill="url(#paint1_linear)"/>
<path d="M49.7538 33.3672C52.1386 31.4193 55.7377 32.7835 56.2322 35.8227L57.919 46.1888C58.4135 49.2281 55.4326 51.6629 52.5532 50.5716L42.7325 46.8493C39.8532 45.758 39.2351 41.9589 41.6198 40.011L49.7538 33.3672Z" fill="#CE3434"/>
<path d="M49.7538 33.3672C52.1386 31.4193 55.7377 32.7835 56.2322 35.8227L57.919 46.1888C58.4135 49.2281 55.4326 51.6629 52.5532 50.5716L42.7325 46.8493C39.8532 45.758 39.2351 41.9589 41.6198 40.011L49.7538 33.3672Z" fill="url(#paint2_linear)"/>
<path d="M35.0074 61.8523C35.4872 58.8108 39.0797 57.4291 41.4739 59.3655L49.64 65.9697C52.0342 67.9061 51.4344 71.708 48.5605 72.8133L38.7579 76.5832C35.8839 77.6885 32.8912 75.2681 33.371 72.2265L35.0074 61.8523Z" fill="#CE3434"/>
<path d="M35.0074 61.8523C35.4872 58.8108 39.0797 57.4291 41.4739 59.3655L49.64 65.9697C52.0342 67.9061 51.4344 71.708 48.5605 72.8133L38.7579 76.5832C35.8839 77.6885 32.8912 75.2681 33.371 72.2265L35.0074 61.8523Z" fill="url(#paint3_linear)"/>
<path d="M52.1593 86.3277C51.3378 83.3601 54.0369 80.6161 57.0176 81.3884L59.8845 82.1313C62.8652 82.9037 63.8921 86.6132 61.7328 88.8084L59.6561 90.9197C57.4968 93.1149 53.7708 92.1495 52.9494 89.1819L52.1593 86.3277Z" fill="#E96921"/>
<path d="M52.1593 86.3277C51.3378 83.3601 54.0369 80.6161 57.0176 81.3884L59.8845 82.1313C62.8652 82.9037 63.8921 86.6132 61.7328 88.8084L59.6561 90.9197C57.4968 93.1149 53.7708 92.1495 52.9494 89.1819L52.1593 86.3277Z" fill="url(#paint4_linear)"/>
<path d="M72.6573 76.5994C71.8358 73.6318 74.5349 70.8878 77.5157 71.6602L80.3825 72.403C83.3632 73.1754 84.3901 76.8849 82.2308 79.0801L80.1541 81.1914C77.9948 83.3867 74.2689 82.4212 73.4474 79.4536L72.6573 76.5994Z" fill="#C5C5C5"/>
<path d="M72.6573 76.5994C71.8358 73.6318 74.5349 70.8878 77.5157 71.6602L80.3825 72.403C83.3632 73.1754 84.3901 76.8849 82.2308 79.0801L80.1541 81.1914C77.9948 83.3867 74.2689 82.4212 73.4474 79.4536L72.6573 76.5994Z" fill="url(#paint5_linear)"/>
<path d="M72.6573 76.5994C71.8358 73.6318 74.5349 70.8878 77.5157 71.6602L80.3825 72.403C83.3632 73.1754 84.3901 76.8849 82.2308 79.0801L80.1541 81.1914C77.9948 83.3867 74.2689 82.4212 73.4474 79.4536L72.6573 76.5994Z" fill="#C5C5C5"/>
<path d="M72.6573 76.5994C71.8358 73.6318 74.5349 70.8878 77.5157 71.6602L80.3825 72.403C83.3632 73.1754 84.3901 76.8849 82.2308 79.0801L80.1541 81.1914C77.9948 83.3867 74.2689 82.4212 73.4474 79.4536L72.6573 76.5994Z" fill="url(#paint6_linear)"/>
<path d="M74.2672 46.0215C75.8068 43.3548 79.6558 43.3548 81.1954 46.0215L82.6761 48.5862C84.2157 51.2529 82.2912 54.5862 79.212 54.5862H76.2505C73.1713 54.5862 71.2468 51.2529 72.7864 48.5862L74.2672 46.0215Z" fill="#E96921"/>
<path d="M74.2672 46.0215C75.8068 43.3548 79.6558 43.3548 81.1954 46.0215L82.6761 48.5862C84.2157 51.2529 82.2912 54.5862 79.212 54.5862H76.2505C73.1713 54.5862 71.2468 51.2529 72.7864 48.5862L74.2672 46.0215Z" fill="url(#paint7_linear)"/>
<path d="M85.8478 14.4928C83.4631 12.5449 79.8639 13.9091 79.3694 16.9483L77.584 27.9203C77.0895 30.9596 80.0705 33.3944 82.9498 32.3031L93.3445 28.3632C96.2238 27.2719 96.842 23.4729 94.4572 21.525L85.8478 14.4928Z" fill="#CE3434"/>
<path d="M85.8478 14.4928C83.4631 12.5449 79.8639 13.9091 79.3694 16.9483L77.584 27.9203C77.0895 30.9596 80.0705 33.3944 82.9498 32.3031L93.3445 28.3632C96.2238 27.2719 96.842 23.4729 94.4572 21.525L85.8478 14.4928Z" fill="url(#paint8_linear)"/>
<path d="M63.8506 6.71801C66.9298 6.71801 68.8543 10.0513 67.3147 12.718L61.5249 22.7462C59.9853 25.4129 56.1363 25.4129 54.5967 22.7462L48.8068 12.718C47.2672 10.0513 49.1918 6.71801 52.271 6.71801L63.8506 6.71801Z" fill="#CE3434"/>
<path d="M63.8506 6.71801C66.9298 6.71801 68.8543 10.0513 67.3147 12.718L61.5249 22.7462C59.9853 25.4129 56.1363 25.4129 54.5967 22.7462L48.8068 12.718C47.2672 10.0513 49.1918 6.71801 52.271 6.71801L63.8506 6.71801Z" fill="url(#paint9_linear)"/>
<path d="M10.3255 39.6943C11.2715 36.764 15.0349 35.9565 17.0996 38.2409L24.9773 46.9565C27.0421 49.2409 25.8597 52.9038 22.849 53.5497L11.3621 56.0142C8.35146 56.6602 5.77052 53.8047 6.71646 50.8744L10.3255 39.6943Z" fill="#CE3434"/>
<path d="M10.3255 39.6943C11.2715 36.764 15.0349 35.9565 17.0996 38.2409L24.9773 46.9565C27.0421 49.2409 25.8597 52.9038 22.849 53.5497L11.3621 56.0142C8.35146 56.6602 5.77052 53.8047 6.71646 50.8744L10.3255 39.6943Z" fill="url(#paint10_linear)"/>
<path d="M6.90516 72.771C6.11613 69.7946 8.84502 67.0802 11.8172 67.8851L23.1569 70.956C26.1291 71.7609 27.1154 75.4814 24.9323 77.6529L16.6029 85.938C14.4198 88.1095 10.7046 87.1034 9.91559 84.127L6.90516 72.771Z" fill="#CE3434"/>
<path d="M6.90516 72.771C6.11613 69.7946 8.84502 67.0802 11.8172 67.8851L23.1569 70.956C26.1291 71.7609 27.1154 75.4814 24.9323 77.6529L16.6029 85.938C14.4198 88.1095 10.7046 87.1034 9.91559 84.127L6.90516 72.771Z" fill="url(#paint11_linear)"/>
<path d="M24 104.247C21.3333 102.707 21.3333 98.8583 24 97.3187L34.1743 91.4446C36.8409 89.905 40.1743 91.8295 40.1743 94.9087L40.1743 106.657C40.1743 109.736 36.8409 111.661 34.1743 110.121L24 104.247Z" fill="#CE3434"/>
<path d="M24 104.247C21.3333 102.707 21.3333 98.8583 24 97.3187L34.1743 91.4446C36.8409 89.905 40.1743 91.8295 40.1743 94.9087L40.1743 106.657C40.1743 109.736 36.8409 111.661 34.1743 110.121L24 104.247Z" fill="url(#paint12_linear)"/>
<path d="M67.0219 114.443C64.0476 115.24 61.326 112.518 62.1229 109.544L65.1636 98.1959C65.9606 95.2216 69.6784 94.2254 71.8557 96.4027L80.163 104.71C82.3403 106.887 81.3441 110.605 78.3698 111.402L67.0219 114.443Z" fill="#CE3434"/>
<path d="M67.0219 114.443C64.0476 115.24 61.326 112.518 62.1229 109.544L65.1636 98.1959C65.9606 95.2216 69.6784 94.2254 71.8557 96.4027L80.163 104.71C82.3403 106.887 81.3441 110.605 78.3698 111.402L67.0219 114.443Z" fill="url(#paint13_linear)"/>
<path d="M107.784 39.6943C106.839 36.764 103.075 35.9565 101.01 38.2409L93.1327 46.9565C91.0679 49.2409 92.2504 52.9038 95.2611 53.5497L106.748 56.0142C109.759 56.6602 112.339 53.8047 111.394 50.8744L107.784 39.6943Z" fill="#CE3434"/>
<path d="M107.784 39.6943C106.839 36.764 103.075 35.9565 101.01 38.2409L93.1327 46.9565C91.0679 49.2409 92.2504 52.9038 95.2611 53.5497L106.748 56.0142C109.759 56.6602 112.339 53.8047 111.394 50.8744L107.784 39.6943Z" fill="url(#paint14_linear)"/>
<path d="M584.851 76.718C587.93 76.718 589.854 80.0513 588.315 82.718L582.525 92.7462C580.985 95.4129 577.136 95.4129 575.597 92.7462L569.807 82.718C568.267 80.0513 570.192 76.718 573.271 76.718L584.851 76.718Z" fill="#CE3434"/>
<path d="M584.851 76.718C587.93 76.718 589.854 80.0513 588.315 82.718L582.525 92.7462C580.985 95.4129 577.136 95.4129 575.597 92.7462L569.807 82.718C568.267 80.0513 570.192 76.718 573.271 76.718L584.851 76.718Z" fill="url(#paint15_linear)"/>
<path d="M150.702 88.948C144.224 88.948 138.826 86.578 134.507 81.838C130.241 77.098 128.108 70.5147 128.108 62.088C128.108 53.7667 130.294 47.2097 134.665 42.417C139.036 37.6243 144.514 35.228 151.097 35.228C154.257 35.228 157.022 35.8863 159.392 37.203C161.815 38.467 163.79 39.9417 165.317 41.627L161.762 45.893C160.393 44.4183 158.839 43.2333 157.101 42.338C155.363 41.4427 153.388 40.995 151.176 40.995C146.278 40.995 142.328 42.891 139.326 46.683C136.377 50.4223 134.902 55.5047 134.902 61.93C134.902 68.4607 136.35 73.6483 139.247 77.493C142.144 81.285 146.041 83.181 150.939 83.181C153.414 83.181 155.626 82.6807 157.575 81.68C159.524 80.6267 161.314 79.1783 162.947 77.335L166.581 81.443C164.527 83.813 162.21 85.6563 159.629 86.973C157.048 88.2897 154.073 88.948 150.702 88.948ZM190.541 88.948C185.854 88.948 181.719 87.21 178.138 83.734C174.557 80.2053 172.766 75.2547 172.766 68.882C172.766 62.4567 174.557 57.4797 178.138 53.951C181.719 50.4223 185.854 48.658 190.541 48.658C195.228 48.658 199.363 50.4223 202.944 53.951C206.525 57.4797 208.316 62.4567 208.316 68.882C208.316 75.2547 206.525 80.2053 202.944 83.734C199.363 87.21 195.228 88.948 190.541 88.948ZM190.541 83.576C193.859 83.576 196.519 82.233 198.52 79.547C200.574 76.8083 201.601 73.2533 201.601 68.882C201.601 64.458 200.574 60.8767 198.52 58.138C196.519 55.3993 193.859 54.03 190.541 54.03C187.276 54.03 184.616 55.3993 182.562 58.138C180.508 60.8767 179.481 64.458 179.481 68.882C179.481 73.2533 180.508 76.8083 182.562 79.547C184.616 82.233 187.276 83.576 190.541 83.576ZM218.427 88V49.606H223.799L224.352 56.558H224.589C225.906 54.1353 227.512 52.213 229.408 50.791C231.304 49.369 233.332 48.658 235.491 48.658C237.019 48.658 238.388 48.9213 239.599 49.448L238.335 55.136C237.703 54.9253 237.124 54.7673 236.597 54.662C236.071 54.5567 235.412 54.504 234.622 54.504C232.99 54.504 231.278 55.1623 229.487 56.479C227.749 57.7957 226.222 60.0867 224.905 63.352V88H218.427ZM259.974 88.948C255.287 88.948 251.153 87.21 247.571 83.734C243.99 80.2053 242.199 75.2547 242.199 68.882C242.199 62.4567 243.99 57.4797 247.571 53.951C251.153 50.4223 255.287 48.658 259.974 48.658C264.662 48.658 268.796 50.4223 272.377 53.951C275.959 57.4797 277.749 62.4567 277.749 68.882C277.749 75.2547 275.959 80.2053 272.377 83.734C268.796 87.21 264.662 88.948 259.974 88.948ZM259.974 83.576C263.292 83.576 265.952 82.233 267.953 79.547C270.007 76.8083 271.034 73.2533 271.034 68.882C271.034 64.458 270.007 60.8767 267.953 58.138C265.952 55.3993 263.292 54.03 259.974 54.03C256.709 54.03 254.049 55.3993 251.995 58.138C249.941 60.8767 248.914 64.458 248.914 68.882C248.914 73.2533 249.941 76.8083 251.995 79.547C254.049 82.233 256.709 83.576 259.974 83.576ZM287.861 88V49.606H293.233L293.786 55.136H294.023C295.813 53.3453 297.736 51.818 299.79 50.554C301.896 49.29 304.266 48.658 306.9 48.658C314.694 48.658 318.592 53.6613 318.592 63.668V88H312.114V64.537C312.114 60.9557 311.534 58.3487 310.376 56.716C309.217 55.0833 307.374 54.267 304.846 54.267C302.897 54.267 301.133 54.7673 299.553 55.768C298.025 56.7687 296.287 58.2433 294.339 60.192V88H287.861ZM341.808 83.734C343.651 83.734 345.389 83.2863 347.022 82.391C348.655 81.4957 350.393 80.2317 352.236 78.599V67.934C345.811 68.724 341.334 69.9353 338.806 71.568C336.278 73.148 335.014 75.1493 335.014 77.572C335.014 79.7313 335.672 81.3113 336.989 82.312C338.306 83.26 339.912 83.734 341.808 83.734ZM339.912 88.948C336.699 88.948 334.013 88 331.854 86.104C329.747 84.1553 328.694 81.4693 328.694 78.046C328.694 73.8327 330.564 70.62 334.303 68.408C338.095 66.1433 344.073 64.5633 352.236 63.668C352.236 61.2453 351.709 59.0333 350.656 57.032C349.603 55.0307 347.496 54.03 344.336 54.03C342.124 54.03 340.044 54.4513 338.095 55.294C336.146 56.1367 334.408 57.0847 332.881 58.138L330.353 53.635C332.144 52.4763 334.329 51.3703 336.91 50.317C339.543 49.211 342.387 48.658 345.442 48.658C350.129 48.658 353.526 50.1063 355.633 53.003C357.74 55.847 358.793 59.6653 358.793 64.458V88H353.421L352.868 83.418H352.631C350.788 84.8927 348.813 86.183 346.706 87.289C344.599 88.395 342.335 88.948 339.912 88.948ZM380.906 88.948C378.167 88.948 375.534 88.4477 373.006 87.447C370.53 86.4463 368.397 85.1823 366.607 83.655L369.846 79.31C371.478 80.6793 373.19 81.7853 374.981 82.628C376.771 83.4707 378.825 83.892 381.143 83.892C383.671 83.892 385.567 83.3127 386.831 82.154C388.095 80.9953 388.727 79.5733 388.727 77.888C388.727 75.8867 387.779 74.3857 385.883 73.385C384.039 72.3317 382.064 71.41 379.958 70.62C377.219 69.6193 374.612 68.3553 372.137 66.828C369.714 65.248 368.503 62.8253 368.503 59.56C368.503 56.5053 369.661 53.9247 371.979 51.818C374.296 49.7113 377.535 48.658 381.696 48.658C384.118 48.658 386.33 49.0793 388.332 49.922C390.386 50.7647 392.15 51.7917 393.625 53.003L390.544 57.111C389.227 56.1103 387.858 55.294 386.436 54.662C385.014 54.03 383.46 53.714 381.775 53.714C379.352 53.714 377.561 54.267 376.403 55.373C375.297 56.479 374.744 57.7693 374.744 59.244C374.744 61.0347 375.613 62.3777 377.351 63.273C379.141 64.1683 381.116 65.0373 383.276 65.88C386.067 66.9333 388.7 68.2237 391.176 69.751C393.704 71.2783 394.968 73.859 394.968 77.493C394.968 80.6003 393.756 83.2863 391.334 85.551C388.911 87.8157 385.435 88.948 380.906 88.948ZM414.513 88.948C410.405 88.948 407.535 87.763 405.902 85.393C404.322 83.023 403.532 79.942 403.532 76.15V54.899H397.844V50.001L403.848 49.606L404.638 38.862H410.089V49.606H420.438V54.899H410.089V76.229C410.089 78.599 410.511 80.4423 411.353 81.759C412.249 83.023 413.802 83.655 416.014 83.655C416.699 83.655 417.436 83.5497 418.226 83.339C419.016 83.0757 419.727 82.8387 420.359 82.628L421.623 87.526C420.57 87.8947 419.411 88.2107 418.147 88.474C416.936 88.79 415.725 88.948 414.513 88.948ZM438.166 83.734C440.01 83.734 441.748 83.2863 443.38 82.391C445.013 81.4957 446.751 80.2317 448.594 78.599V67.934C442.169 68.724 437.692 69.9353 435.164 71.568C432.636 73.148 431.372 75.1493 431.372 77.572C431.372 79.7313 432.031 81.3113 433.347 82.312C434.664 83.26 436.27 83.734 438.166 83.734ZM436.27 88.948C433.058 88.948 430.372 88 428.212 86.104C426.106 84.1553 425.052 81.4693 425.052 78.046C425.052 73.8327 426.922 70.62 430.661 68.408C434.453 66.1433 440.431 64.5633 448.594 63.668C448.594 61.2453 448.068 59.0333 447.014 57.032C445.961 55.0307 443.854 54.03 440.694 54.03C438.482 54.03 436.402 54.4513 434.453 55.294C432.505 56.1367 430.767 57.0847 429.239 58.138L426.711 53.635C428.502 52.4763 430.688 51.3703 433.268 50.317C435.902 49.211 438.746 48.658 441.8 48.658C446.488 48.658 449.885 50.1063 451.991 53.003C454.098 55.847 455.151 59.6653 455.151 64.458V88H449.779L449.226 83.418H448.989C447.146 84.8927 445.171 86.183 443.064 87.289C440.958 88.395 438.693 88.948 436.27 88.948ZM478.238 88.948C474.13 88.948 471.26 87.763 469.627 85.393C468.047 83.023 467.257 79.942 467.257 76.15V54.899H461.569V50.001L467.573 49.606L468.363 38.862H473.814V49.606H484.163V54.899H473.814V76.229C473.814 78.599 474.235 80.4423 475.078 81.759C475.973 83.023 477.527 83.655 479.739 83.655C480.424 83.655 481.161 83.5497 481.951 83.339C482.741 83.0757 483.452 82.8387 484.084 82.628L485.348 87.526C484.295 87.8947 483.136 88.2107 481.872 88.474C480.661 88.79 479.449 88.948 478.238 88.948ZM504.062 88.948C496.215 88.948 492.291 83.9447 492.291 73.938V49.606H498.848V73.069C498.848 76.6503 499.401 79.2573 500.507 80.89C501.666 82.5227 503.509 83.339 506.037 83.339C507.986 83.339 509.75 82.8387 511.33 81.838C512.91 80.7847 514.596 79.1257 516.386 76.861V49.606H522.864V88H517.492L516.939 81.996H516.702C514.912 84.1027 513.016 85.788 511.014 87.052C509.013 88.316 506.696 88.948 504.062 88.948ZM545.849 88.948C543.11 88.948 540.477 88.4477 537.949 87.447C535.474 86.4463 533.341 85.1823 531.55 83.655L534.789 79.31C536.422 80.6793 538.133 81.7853 539.924 82.628C541.715 83.4707 543.769 83.892 546.086 83.892C548.614 83.892 550.51 83.3127 551.774 82.154C553.038 80.9953 553.67 79.5733 553.67 77.888C553.67 75.8867 552.722 74.3857 550.826 73.385C548.983 72.3317 547.008 71.41 544.901 70.62C542.162 69.6193 539.555 68.3553 537.08 66.828C534.657 65.248 533.446 62.8253 533.446 59.56C533.446 56.5053 534.605 53.9247 536.922 51.818C539.239 49.7113 542.478 48.658 546.639 48.658C549.062 48.658 551.274 49.0793 553.275 49.922C555.329 50.7647 557.093 51.7917 558.568 53.003L555.487 57.111C554.17 56.1103 552.801 55.294 551.379 54.662C549.957 54.03 548.403 53.714 546.718 53.714C544.295 53.714 542.505 54.267 541.346 55.373C540.24 56.479 539.687 57.7693 539.687 59.244C539.687 61.0347 540.556 62.3777 542.294 63.273C544.085 64.1683 546.06 65.0373 548.219 65.88C551.01 66.9333 553.644 68.2237 556.119 69.751C558.647 71.2783 559.911 73.859 559.911 77.493C559.911 80.6003 558.7 83.2863 556.277 85.551C553.854 87.8157 550.378 88.948 545.849 88.948ZM599.832 88V49.211H607.337L607.969 54.425H608.285C610.023 52.7397 611.919 51.2913 613.973 50.08C616.027 48.8687 618.371 48.263 621.004 48.263C625.165 48.263 628.193 49.606 630.089 52.292C631.985 54.978 632.933 58.77 632.933 63.668V88H623.848V64.853C623.848 61.6403 623.348 59.3757 622.347 58.059C621.399 56.7423 619.872 56.084 617.765 56.084C616.08 56.084 614.579 56.5053 613.262 57.348C611.998 58.138 610.55 59.323 608.917 60.903V88H599.832ZM659.917 88.948C655.072 88.948 650.78 87.1837 647.04 83.655C643.354 80.0737 641.51 75.0703 641.51 68.645C641.51 62.167 643.354 57.1637 647.04 53.635C650.78 50.0537 655.072 48.263 659.917 48.263C664.763 48.263 669.055 50.0537 672.794 53.635C676.534 57.1637 678.403 62.167 678.403 68.645C678.403 75.0703 676.534 80.0737 672.794 83.655C669.055 87.1837 664.763 88.948 659.917 88.948ZM659.917 81.522C662.761 81.522 665 80.337 666.632 77.967C668.265 75.597 669.081 72.4897 669.081 68.645C669.081 64.7477 668.265 61.614 666.632 59.244C665 56.874 662.761 55.689 659.917 55.689C657.073 55.689 654.835 56.874 653.202 59.244C651.622 61.614 650.832 64.7477 650.832 68.645C650.832 72.4897 651.622 75.597 653.202 77.967C654.835 80.337 657.073 81.522 659.917 81.522Z" fill="black"/>
<defs>
<radialGradient id="paint0_radial" cx="0" cy="0" r="1" gradientUnits="userSpaceOnUse" gradientTransform="translate(74 81) rotate(69.444) scale(85.44)">
<stop offset="0.354167" stop-color="#606060"/>
<stop offset="1" stop-color="white" stop-opacity="0"/>
</radialGradient>
<linearGradient id="paint1_linear" x1="26.231" y1="18.7611" x2="29.9298" y2="26.2701" gradientUnits="userSpaceOnUse">
<stop stop-color="#FF6262"/>
<stop offset="1" stop-color="white" stop-opacity="0"/>
</linearGradient>
<linearGradient id="paint2_linear" x1="47" y1="36.5" x2="50.4645" y2="43.7718" gradientUnits="userSpaceOnUse">
<stop stop-color="#FF6262"/>
<stop offset="1" stop-color="white" stop-opacity="0"/>
</linearGradient>
<linearGradient id="paint3_linear" x1="23" y1="62" x2="42.4714" y2="69.1358" gradientUnits="userSpaceOnUse">
<stop stop-color="#FF6262"/>
<stop offset="1" stop-color="white" stop-opacity="0"/>
</linearGradient>
<linearGradient id="paint4_linear" x1="44.0817" y1="87.783" x2="58.3591" y2="86.7069" gradientUnits="userSpaceOnUse">
<stop stop-color="#FFB762"/>
<stop offset="1" stop-color="white" stop-opacity="0"/>
</linearGradient>
<linearGradient id="paint5_linear" x1="77.5" y1="76.5" x2="70.5" y2="69.5" gradientUnits="userSpaceOnUse">
<stop stop-color="#7B7B7B"/>
<stop offset="1" stop-color="white" stop-opacity="0"/>
</linearGradient>
<linearGradient id="paint6_linear" x1="77.5" y1="76.5" x2="70.5" y2="69.5" gradientUnits="userSpaceOnUse">
<stop stop-color="#7B7B7B"/>
<stop offset="1" stop-color="white" stop-opacity="0"/>
</linearGradient>
<linearGradient id="paint7_linear" x1="67.5653" y1="41.2834" x2="78.3444" y2="50.7074" gradientUnits="userSpaceOnUse">
<stop stop-color="#FFB762"/>
<stop offset="1" stop-color="white" stop-opacity="0"/>
</linearGradient>
<linearGradient id="paint8_linear" x1="80.1728" y1="16.1145" x2="85.2545" y2="25.2701" gradientUnits="userSpaceOnUse">
<stop stop-color="#FF6262"/>
<stop offset="1" stop-color="white" stop-opacity="0"/>
</linearGradient>
<linearGradient id="paint9_linear" x1="55.0412" y1="8.51926" x2="57.246" y2="15.602" gradientUnits="userSpaceOnUse">
<stop stop-color="#FF6262"/>
<stop offset="1" stop-color="white" stop-opacity="0"/>
</linearGradient>
<linearGradient id="paint10_linear" x1="8.86736" y1="38.335" x2="16.7794" y2="48.8121" gradientUnits="userSpaceOnUse">
<stop stop-color="#FF6262"/>
<stop offset="1" stop-color="white" stop-opacity="0"/>
</linearGradient>
<linearGradient id="paint11_linear" x1="4.9435" y1="72.4162" x2="17.2648" y2="76.9503" gradientUnits="userSpaceOnUse">
<stop stop-color="#FF6262"/>
<stop offset="1" stop-color="white" stop-opacity="0"/>
</linearGradient>
<linearGradient id="paint12_linear" x1="22.3651" y1="105.388" x2="34.2689" y2="99.8494" gradientUnits="userSpaceOnUse">
<stop stop-color="#FF6262"/>
<stop offset="1" stop-color="white" stop-opacity="0"/>
</linearGradient>
<linearGradient id="paint13_linear" x1="66.6724" y1="116.405" x2="71.1735" y2="104.072" gradientUnits="userSpaceOnUse">
<stop stop-color="#FF6262"/>
<stop offset="1" stop-color="white" stop-opacity="0"/>
</linearGradient>
<linearGradient id="paint14_linear" x1="109.243" y1="38.335" x2="101.331" y2="48.8121" gradientUnits="userSpaceOnUse">
<stop stop-color="#FF6262"/>
<stop offset="1" stop-color="white" stop-opacity="0"/>
</linearGradient>
<linearGradient id="paint15_linear" x1="576.041" y1="78.5193" x2="578.246" y2="85.602" gradientUnits="userSpaceOnUse">
<stop stop-color="#FF6262"/>
<stop offset="1" stop-color="white" stop-opacity="0"/>
</linearGradient>
</defs>
</svg>
