<svg enable-background="new 0 0 64 64" viewBox="0 0 64 64" xmlns="http://www.w3.org/2000/svg"><path d="m62 41h-60v17c0 2.209 1.791 4 4 4h52c2.209 0 4-1.791 4-4z" fill="#42a5b2"/><path d="m52 21h-40l-10 20h60z" fill="#62c4c3"/><path d="m17 27c-1.104 0-2 .896-2 2v2c0 1.104.896 2 2 2h30c1.104 0 2-.896 2-2v-2c0-1.104-.896-2-2-2z" fill="#3a4249"/><path d="m19 33v-31h12.586c.905 0 1.774.359 2.414 1s1.509 1 2.414 1h8.586v29z" fill="#f2daae"/><path d="m40 51c0 2.762-3.582 5-8 5s-8-2.238-8-5 3.582-5 8-5 8 2.238 8 5z" fill="#efbc2e"/><g fill="#3a4249"><path d="m57 44h2v2h-2z"/><path d="m53 44h2v2h-2z"/><path d="m49 44h2v2h-2z"/></g><path d="m45 18.659c-4.842 6.004-15.648 10.278-26 11.164v3.177h26z" fill="#e0c494"/></svg>