<?xml version="1.0" encoding="UTF-8" standalone="no"?>
<svg
   xmlns:dc="http://purl.org/dc/elements/1.1/"
   xmlns:cc="http://creativecommons.org/ns#"
   xmlns:rdf="http://www.w3.org/1999/02/22-rdf-syntax-ns#"
   xmlns:svg="http://www.w3.org/2000/svg"
   xmlns="http://www.w3.org/2000/svg"
   xmlns:sodipodi="http://sodipodi.sourceforge.net/DTD/sodipodi-0.dtd"
   xmlns:inkscape="http://www.inkscape.org/namespaces/inkscape"
   width="679"
   height="121"
   viewBox="0 0 679 121"
   fill="none"
   version="1.1"
   id="svg168"
   sodipodi:docname="coronastatus.svg"
   inkscape:version="0.92.4 (f8dce91, 2019-08-02)">
  <metadata
     id="metadata172">
    <rdf:RDF>
      <cc:Work
         rdf:about="">
        <dc:format>image/svg+xml</dc:format>
        <dc:type
           rdf:resource="http://purl.org/dc/dcmitype/StillImage" />
        <dc:title></dc:title>
      </cc:Work>
    </rdf:RDF>
  </metadata>
  <sodipodi:namedview
     pagecolor="#ffffff"
     bordercolor="#666666"
     borderopacity="1"
     objecttolerance="10"
     gridtolerance="10"
     guidetolerance="10"
     inkscape:pageopacity="0"
     inkscape:pageshadow="2"
     inkscape:window-width="2560"
     inkscape:window-height="1376"
     id="namedview170"
     showgrid="false"
     inkscape:zoom="2.2268041"
     inkscape:cx="539.53498"
     inkscape:cy="43.203712"
     inkscape:window-x="0"
     inkscape:window-y="27"
     inkscape:window-maximized="1"
     inkscape:current-layer="svg168" />
  <circle
     cx="58.5"
     cy="64.5"
     r="45.5"
     fill="#959595"
     id="circle2" />
  <circle
     cx="58.5"
     cy="64.5"
     r="45.5"
     fill="url(#paint0_radial)"
     id="circle4" />
  <path
     d="M32.5 39.5C55.5 16.5 85.5 30.5 71.5 30.5C57.5 30.5 23.5 53 23.5 75.5C23.5 98 9.50001 62.5 32.5 39.5Z"
     fill="white"
     fill-opacity="0.2"
     id="path6" />
  <circle
     cx="81"
     cy="40"
     r="5"
     fill="#393939"
     fill-opacity="0.4"
     id="circle8" />
  <circle
     cx="73"
     cy="77"
     r="5"
     fill="#393939"
     fill-opacity="0.4"
     id="circle10" />
  <circle
     cx="76"
     cy="90"
     r="5"
     fill="#393939"
     fill-opacity="0.4"
     id="circle12" />
  <circle
     cx="86"
     cy="78"
     r="5"
     fill="#393939"
     fill-opacity="0.4"
     id="circle14" />
  <circle
     cx="94"
     cy="65"
     r="5"
     fill="#393939"
     fill-opacity="0.4"
     id="circle16" />
  <circle
     cx="81"
     cy="65"
     r="5"
     fill="#393939"
     fill-opacity="0.4"
     id="circle18" />
  <circle
     cx="73"
     cy="55"
     r="5"
     fill="#393939"
     fill-opacity="0.4"
     id="circle20" />
  <circle
     cx="88"
     cy="52"
     r="5"
     fill="#393939"
     fill-opacity="0.4"
     id="circle22" />
  <path
     d="M29.3364 15.4928C31.7212 13.5449 35.3204 14.9091 35.8149 17.9483L37.6002 28.9203C38.0948 31.9596 35.1138 34.3944 32.2345 33.3031L21.8398 29.3632C18.9604 28.2719 18.3423 24.4729 20.727 22.525L29.3364 15.4928Z"
     fill="#CE3434"
     id="path24" />
  <path
     d="M29.3364 15.4928C31.7212 13.5449 35.3204 14.9091 35.8149 17.9483L37.6002 28.9203C38.0948 31.9596 35.1138 34.3944 32.2345 33.3031L21.8398 29.3632C18.9604 28.2719 18.3423 24.4729 20.727 22.525L29.3364 15.4928Z"
     fill="url(#paint1_linear)"
     id="path26" />
  <path
     d="M49.7538 33.3672C52.1386 31.4193 55.7377 32.7835 56.2322 35.8227L57.919 46.1888C58.4135 49.2281 55.4326 51.6629 52.5532 50.5716L42.7325 46.8493C39.8532 45.758 39.2351 41.9589 41.6198 40.011L49.7538 33.3672Z"
     fill="#CE3434"
     id="path28" />
  <path
     d="M49.7538 33.3672C52.1386 31.4193 55.7377 32.7835 56.2322 35.8227L57.919 46.1888C58.4135 49.2281 55.4326 51.6629 52.5532 50.5716L42.7325 46.8493C39.8532 45.758 39.2351 41.9589 41.6198 40.011L49.7538 33.3672Z"
     fill="url(#paint2_linear)"
     id="path30" />
  <path
     d="M35.0074 61.8523C35.4872 58.8108 39.0797 57.4291 41.4739 59.3655L49.64 65.9697C52.0342 67.9061 51.4344 71.708 48.5605 72.8133L38.7579 76.5832C35.8839 77.6885 32.8912 75.2681 33.371 72.2265L35.0074 61.8523Z"
     fill="#CE3434"
     id="path32" />
  <path
     d="M35.0074 61.8523C35.4872 58.8108 39.0797 57.4291 41.4739 59.3655L49.64 65.9697C52.0342 67.9061 51.4344 71.708 48.5605 72.8133L38.7579 76.5832C35.8839 77.6885 32.8912 75.2681 33.371 72.2265L35.0074 61.8523Z"
     fill="url(#paint3_linear)"
     id="path34" />
  <path
     d="M52.1593 86.3277C51.3378 83.3601 54.0369 80.6161 57.0176 81.3884L59.8845 82.1313C62.8652 82.9037 63.8921 86.6132 61.7328 88.8084L59.6561 90.9197C57.4968 93.1149 53.7708 92.1495 52.9494 89.1819L52.1593 86.3277Z"
     fill="#E96921"
     id="path36" />
  <path
     d="M52.1593 86.3277C51.3378 83.3601 54.0369 80.6161 57.0176 81.3884L59.8845 82.1313C62.8652 82.9037 63.8921 86.6132 61.7328 88.8084L59.6561 90.9197C57.4968 93.1149 53.7708 92.1495 52.9494 89.1819L52.1593 86.3277Z"
     fill="url(#paint4_linear)"
     id="path38" />
  <path
     d="M72.6573 76.5994C71.8358 73.6318 74.5349 70.8878 77.5157 71.6602L80.3825 72.403C83.3632 73.1754 84.3901 76.8849 82.2308 79.0801L80.1541 81.1914C77.9948 83.3867 74.2689 82.4212 73.4474 79.4536L72.6573 76.5994Z"
     fill="#C5C5C5"
     id="path40" />
  <path
     d="M72.6573 76.5994C71.8358 73.6318 74.5349 70.8878 77.5157 71.6602L80.3825 72.403C83.3632 73.1754 84.3901 76.8849 82.2308 79.0801L80.1541 81.1914C77.9948 83.3867 74.2689 82.4212 73.4474 79.4536L72.6573 76.5994Z"
     fill="url(#paint5_linear)"
     id="path42" />
  <path
     d="M72.6573 76.5994C71.8358 73.6318 74.5349 70.8878 77.5157 71.6602L80.3825 72.403C83.3632 73.1754 84.3901 76.8849 82.2308 79.0801L80.1541 81.1914C77.9948 83.3867 74.2689 82.4212 73.4474 79.4536L72.6573 76.5994Z"
     fill="#C5C5C5"
     id="path44" />
  <path
     d="M72.6573 76.5994C71.8358 73.6318 74.5349 70.8878 77.5157 71.6602L80.3825 72.403C83.3632 73.1754 84.3901 76.8849 82.2308 79.0801L80.1541 81.1914C77.9948 83.3867 74.2689 82.4212 73.4474 79.4536L72.6573 76.5994Z"
     fill="url(#paint6_linear)"
     id="path46" />
  <path
     d="M74.2672 46.0215C75.8068 43.3548 79.6558 43.3548 81.1954 46.0215L82.6761 48.5862C84.2157 51.2529 82.2912 54.5862 79.212 54.5862H76.2505C73.1713 54.5862 71.2468 51.2529 72.7864 48.5862L74.2672 46.0215Z"
     fill="#E96921"
     id="path48" />
  <path
     d="M74.2672 46.0215C75.8068 43.3548 79.6558 43.3548 81.1954 46.0215L82.6761 48.5862C84.2157 51.2529 82.2912 54.5862 79.212 54.5862H76.2505C73.1713 54.5862 71.2468 51.2529 72.7864 48.5862L74.2672 46.0215Z"
     fill="url(#paint7_linear)"
     id="path50" />
  <path
     d="M85.8478 14.4928C83.4631 12.5449 79.8639 13.9091 79.3694 16.9483L77.584 27.9203C77.0895 30.9596 80.0705 33.3944 82.9498 32.3031L93.3445 28.3632C96.2238 27.2719 96.842 23.4729 94.4572 21.525L85.8478 14.4928Z"
     fill="#CE3434"
     id="path52" />
  <path
     d="M85.8478 14.4928C83.4631 12.5449 79.8639 13.9091 79.3694 16.9483L77.584 27.9203C77.0895 30.9596 80.0705 33.3944 82.9498 32.3031L93.3445 28.3632C96.2238 27.2719 96.842 23.4729 94.4572 21.525L85.8478 14.4928Z"
     fill="url(#paint8_linear)"
     id="path54" />
  <path
     d="M63.8506 6.71801C66.9298 6.71801 68.8543 10.0513 67.3147 12.718L61.5249 22.7462C59.9853 25.4129 56.1363 25.4129 54.5967 22.7462L48.8068 12.718C47.2672 10.0513 49.1918 6.71801 52.271 6.71801L63.8506 6.71801Z"
     fill="#CE3434"
     id="path56" />
  <path
     d="M63.8506 6.71801C66.9298 6.71801 68.8543 10.0513 67.3147 12.718L61.5249 22.7462C59.9853 25.4129 56.1363 25.4129 54.5967 22.7462L48.8068 12.718C47.2672 10.0513 49.1918 6.71801 52.271 6.71801L63.8506 6.71801Z"
     fill="url(#paint9_linear)"
     id="path58" />
  <path
     d="M10.3255 39.6943C11.2715 36.764 15.0349 35.9565 17.0996 38.2409L24.9773 46.9565C27.0421 49.2409 25.8597 52.9038 22.849 53.5497L11.3621 56.0142C8.35146 56.6602 5.77052 53.8047 6.71646 50.8744L10.3255 39.6943Z"
     fill="#CE3434"
     id="path60" />
  <path
     d="M10.3255 39.6943C11.2715 36.764 15.0349 35.9565 17.0996 38.2409L24.9773 46.9565C27.0421 49.2409 25.8597 52.9038 22.849 53.5497L11.3621 56.0142C8.35146 56.6602 5.77052 53.8047 6.71646 50.8744L10.3255 39.6943Z"
     fill="url(#paint10_linear)"
     id="path62" />
  <path
     d="M6.90516 72.771C6.11613 69.7946 8.84502 67.0802 11.8172 67.8851L23.1569 70.956C26.1291 71.7609 27.1154 75.4814 24.9323 77.6529L16.6029 85.938C14.4198 88.1095 10.7046 87.1034 9.91559 84.127L6.90516 72.771Z"
     fill="#CE3434"
     id="path64" />
  <path
     d="M6.90516 72.771C6.11613 69.7946 8.84502 67.0802 11.8172 67.8851L23.1569 70.956C26.1291 71.7609 27.1154 75.4814 24.9323 77.6529L16.6029 85.938C14.4198 88.1095 10.7046 87.1034 9.91559 84.127L6.90516 72.771Z"
     fill="url(#paint11_linear)"
     id="path66" />
  <path
     d="M24 104.247C21.3333 102.707 21.3333 98.8583 24 97.3187L34.1743 91.4446C36.8409 89.905 40.1743 91.8295 40.1743 94.9087L40.1743 106.657C40.1743 109.736 36.8409 111.661 34.1743 110.121L24 104.247Z"
     fill="#CE3434"
     id="path68" />
  <path
     d="M24 104.247C21.3333 102.707 21.3333 98.8583 24 97.3187L34.1743 91.4446C36.8409 89.905 40.1743 91.8295 40.1743 94.9087L40.1743 106.657C40.1743 109.736 36.8409 111.661 34.1743 110.121L24 104.247Z"
     fill="url(#paint12_linear)"
     id="path70" />
  <path
     d="M67.0219 114.443C64.0476 115.24 61.326 112.518 62.1229 109.544L65.1636 98.1959C65.9606 95.2216 69.6784 94.2254 71.8557 96.4027L80.163 104.71C82.3403 106.887 81.3441 110.605 78.3698 111.402L67.0219 114.443Z"
     fill="#CE3434"
     id="path72" />
  <path
     d="M67.0219 114.443C64.0476 115.24 61.326 112.518 62.1229 109.544L65.1636 98.1959C65.9606 95.2216 69.6784 94.2254 71.8557 96.4027L80.163 104.71C82.3403 106.887 81.3441 110.605 78.3698 111.402L67.0219 114.443Z"
     fill="url(#paint13_linear)"
     id="path74" />
  <path
     d="M107.784 39.6943C106.839 36.764 103.075 35.9565 101.01 38.2409L93.1327 46.9565C91.0679 49.2409 92.2504 52.9038 95.2611 53.5497L106.748 56.0142C109.759 56.6602 112.339 53.8047 111.394 50.8744L107.784 39.6943Z"
     fill="#CE3434"
     id="path76" />
  <path
     d="M107.784 39.6943C106.839 36.764 103.075 35.9565 101.01 38.2409L93.1327 46.9565C91.0679 49.2409 92.2504 52.9038 95.2611 53.5497L106.748 56.0142C109.759 56.6602 112.339 53.8047 111.394 50.8744L107.784 39.6943Z"
     fill="url(#paint14_linear)"
     id="path78" />
  <path
     d="m 577.26187,76.718 c 3.079,0 5.003,3.3333 3.464,6 l -5.79,10.0282 c -1.54,2.6667 -5.389,2.6667 -6.928,0 l -5.79,-10.0282 c -1.54,-2.6667 0.385,-6 3.464,-6 z"
     id="path80"
     inkscape:connector-curvature="0"
     style="fill:#ce3434" />
  <path
     d="m 577.26187,76.718 c 3.079,0 5.003,3.3333 3.464,6 l -5.79,10.0282 c -1.54,2.6667 -5.389,2.6667 -6.928,0 l -5.79,-10.0282 c -1.54,-2.6667 0.385,-6 3.464,-6 z"
     id="path82"
     style="fill:url(#paint15_linear)"
     inkscape:connector-curvature="0" />
  <defs
     id="defs166">
    <radialGradient
       id="paint0_radial"
       cx="0"
       cy="0"
       r="1"
       gradientUnits="userSpaceOnUse"
       gradientTransform="translate(74 81) rotate(69.444) scale(85.44)">
      <stop
         offset="0.354167"
         stop-color="#606060"
         id="stop86" />
      <stop
         offset="1"
         stop-color="white"
         stop-opacity="0"
         id="stop88" />
    </radialGradient>
    <linearGradient
       id="paint1_linear"
       x1="26.231"
       y1="18.7611"
       x2="29.9298"
       y2="26.2701"
       gradientUnits="userSpaceOnUse">
      <stop
         stop-color="#FF6262"
         id="stop91" />
      <stop
         offset="1"
         stop-color="white"
         stop-opacity="0"
         id="stop93" />
    </linearGradient>
    <linearGradient
       id="paint2_linear"
       x1="47"
       y1="36.5"
       x2="50.4645"
       y2="43.7718"
       gradientUnits="userSpaceOnUse">
      <stop
         stop-color="#FF6262"
         id="stop96" />
      <stop
         offset="1"
         stop-color="white"
         stop-opacity="0"
         id="stop98" />
    </linearGradient>
    <linearGradient
       id="paint3_linear"
       x1="23"
       y1="62"
       x2="42.4714"
       y2="69.1358"
       gradientUnits="userSpaceOnUse">
      <stop
         stop-color="#FF6262"
         id="stop101" />
      <stop
         offset="1"
         stop-color="white"
         stop-opacity="0"
         id="stop103" />
    </linearGradient>
    <linearGradient
       id="paint4_linear"
       x1="44.0817"
       y1="87.783"
       x2="58.3591"
       y2="86.7069"
       gradientUnits="userSpaceOnUse">
      <stop
         stop-color="#FFB762"
         id="stop106" />
      <stop
         offset="1"
         stop-color="white"
         stop-opacity="0"
         id="stop108" />
    </linearGradient>
    <linearGradient
       id="paint5_linear"
       x1="77.5"
       y1="76.5"
       x2="70.5"
       y2="69.5"
       gradientUnits="userSpaceOnUse">
      <stop
         stop-color="#7B7B7B"
         id="stop111" />
      <stop
         offset="1"
         stop-color="white"
         stop-opacity="0"
         id="stop113" />
    </linearGradient>
    <linearGradient
       id="paint6_linear"
       x1="77.5"
       y1="76.5"
       x2="70.5"
       y2="69.5"
       gradientUnits="userSpaceOnUse">
      <stop
         stop-color="#7B7B7B"
         id="stop116" />
      <stop
         offset="1"
         stop-color="white"
         stop-opacity="0"
         id="stop118" />
    </linearGradient>
    <linearGradient
       id="paint7_linear"
       x1="67.5653"
       y1="41.2834"
       x2="78.3444"
       y2="50.7074"
       gradientUnits="userSpaceOnUse">
      <stop
         stop-color="#FFB762"
         id="stop121" />
      <stop
         offset="1"
         stop-color="white"
         stop-opacity="0"
         id="stop123" />
    </linearGradient>
    <linearGradient
       id="paint8_linear"
       x1="80.1728"
       y1="16.1145"
       x2="85.2545"
       y2="25.2701"
       gradientUnits="userSpaceOnUse">
      <stop
         stop-color="#FF6262"
         id="stop126" />
      <stop
         offset="1"
         stop-color="white"
         stop-opacity="0"
         id="stop128" />
    </linearGradient>
    <linearGradient
       id="paint9_linear"
       x1="55.0412"
       y1="8.51926"
       x2="57.246"
       y2="15.602"
       gradientUnits="userSpaceOnUse">
      <stop
         stop-color="#FF6262"
         id="stop131" />
      <stop
         offset="1"
         stop-color="white"
         stop-opacity="0"
         id="stop133" />
    </linearGradient>
    <linearGradient
       id="paint10_linear"
       x1="8.86736"
       y1="38.335"
       x2="16.7794"
       y2="48.8121"
       gradientUnits="userSpaceOnUse">
      <stop
         stop-color="#FF6262"
         id="stop136" />
      <stop
         offset="1"
         stop-color="white"
         stop-opacity="0"
         id="stop138" />
    </linearGradient>
    <linearGradient
       id="paint11_linear"
       x1="4.9435"
       y1="72.4162"
       x2="17.2648"
       y2="76.9503"
       gradientUnits="userSpaceOnUse">
      <stop
         stop-color="#FF6262"
         id="stop141" />
      <stop
         offset="1"
         stop-color="white"
         stop-opacity="0"
         id="stop143" />
    </linearGradient>
    <linearGradient
       id="paint12_linear"
       x1="22.3651"
       y1="105.388"
       x2="34.2689"
       y2="99.8494"
       gradientUnits="userSpaceOnUse">
      <stop
         stop-color="#FF6262"
         id="stop146" />
      <stop
         offset="1"
         stop-color="white"
         stop-opacity="0"
         id="stop148" />
    </linearGradient>
    <linearGradient
       id="paint13_linear"
       x1="66.6724"
       y1="116.405"
       x2="71.1735"
       y2="104.072"
       gradientUnits="userSpaceOnUse">
      <stop
         stop-color="#FF6262"
         id="stop151" />
      <stop
         offset="1"
         stop-color="white"
         stop-opacity="0"
         id="stop153" />
    </linearGradient>
    <linearGradient
       id="paint14_linear"
       x1="109.243"
       y1="38.335"
       x2="101.331"
       y2="48.8121"
       gradientUnits="userSpaceOnUse">
      <stop
         stop-color="#FF6262"
         id="stop156" />
      <stop
         offset="1"
         stop-color="white"
         stop-opacity="0"
         id="stop158" />
    </linearGradient>
    <linearGradient
       id="paint15_linear"
       x1="576.041"
       y1="78.5193"
       x2="578.246"
       y2="85.602"
       gradientUnits="userSpaceOnUse"
       gradientTransform="translate(-7.589125)">
      <stop
         stop-color="#FF6262"
         id="stop161" />
      <stop
         offset="1"
         stop-color="white"
         stop-opacity="0"
         id="stop163" />
    </linearGradient>
  </defs>
  <text
     xml:space="preserve"
     style="font-style:normal;font-weight:normal;font-size:40px;line-height:1.25;font-family:sans-serif;letter-spacing:0px;word-spacing:0px;fill:#000000;fill-opacity:1;stroke:none"
     x="119.3963"
     y="86.70533"
     id="text981"><tspan
       sodipodi:role="line"
       id="tspan979"
       x="119.3963"
       y="86.70533"
       style="font-weight:normal;font-size:66.66666412px">Coronastatus <tspan
   style="font-weight:bold"
   id="tspan983">sk</tspan></tspan></text>
</svg>
